<svg width="952" height="175" viewBox="0 0 952 175" fill="none" xmlns="http://www.w3.org/2000/svg">
<path d="M17.9121 91.3623H13.0171L12.0649 95H8.26855L13.8228 77.2266H17.1064L22.6973 95H18.8643L17.9121 91.3623ZM13.7983 88.3716H17.1187L15.4585 82.0361L13.7983 88.3716ZM27.9585 92.0215H34.2573V95H24.3696V77.2266H27.9585V92.0215ZM39.9214 92.0215H46.2202V95H36.3325V77.2266H39.9214V92.0215ZM57.4751 87.3096H51.8843V92.0215H58.5005V95H48.2954V77.2266H58.4761V80.2173H51.8843V84.4165H57.4751V87.3096ZM65.959 88.5059H64.1768V95H60.5879V77.2266H66.313C68.1115 77.2266 69.499 77.6945 70.4756 78.6304C71.4603 79.5581 71.9526 80.8805 71.9526 82.5977C71.9526 84.9577 71.0941 86.6097 69.377 87.5537L72.4897 94.8291V95H68.6323L65.959 88.5059ZM64.1768 85.5151H66.2153C66.9315 85.5151 67.4686 85.2791 67.8267 84.8071C68.1847 84.327 68.3638 83.6882 68.3638 82.8906C68.3638 81.1084 67.668 80.2173 66.2764 80.2173H64.1768V85.5151ZM86.5034 92.9858C85.8117 93.7345 84.9613 94.3001 83.9521 94.6826C82.9512 95.057 81.8525 95.2441 80.6562 95.2441C78.6136 95.2441 77.0267 94.6134 75.8955 93.3521C74.7643 92.0825 74.1825 90.2393 74.1499 87.8223V84.624C74.1499 82.1745 74.6829 80.2905 75.749 78.9722C76.8232 77.6457 78.3857 76.9824 80.4365 76.9824C82.3652 76.9824 83.8179 77.4585 84.7944 78.4106C85.7791 79.3628 86.3488 80.8561 86.5034 82.8906H83.0122C82.9146 81.7594 82.6785 80.9904 82.3042 80.5835C81.9299 80.1685 81.3439 79.9609 80.5464 79.9609C79.578 79.9609 78.874 80.3149 78.4346 81.0229C77.9951 81.731 77.7673 82.8581 77.751 84.4043V87.627C77.751 89.2464 77.991 90.4264 78.4712 91.167C78.9595 91.8994 79.757 92.2656 80.8638 92.2656C81.5718 92.2656 82.1455 92.1232 82.585 91.8384L82.9023 91.6187V88.3594H80.3877V85.6494H86.5034V92.9858ZM98.2222 87.3096H92.6313V92.0215H99.2476V95H89.0425V77.2266H99.2231V80.2173H92.6313V84.4165H98.2222V87.3096ZM113.75 95H110.161L104.912 83.3423V95H101.323V77.2266H104.912L110.173 88.8965V77.2266H113.75V95ZM127.397 88.1396L125.981 89.9219V95H122.392V77.2266H125.981V84.978L127.116 83.0615L130.424 77.2266H134.819L129.729 85.0391L134.904 95H130.644L127.397 88.1396ZM145.415 87.3096H139.824V92.0215H146.44V95H136.235V77.2266H146.416V80.2173H139.824V84.4165H145.415V87.3096ZM153.874 85.21L156.547 77.2266H160.454L155.693 88.5547V95H152.055V88.5547L147.282 77.2266H151.188L153.874 85.21Z" fill="#ED1C24"/>
<path d="M312.57 66.216C311.766 66.216 311.01 66.09 310.302 65.838C309.606 65.574 309 65.19 308.484 64.686C307.968 64.182 307.56 63.558 307.26 62.814C306.972 62.058 306.828 61.188 306.828 60.204C306.828 59.232 306.978 58.368 307.278 57.612C307.578 56.844 307.986 56.196 308.502 55.668C309.03 55.14 309.642 54.738 310.338 54.462C311.034 54.186 311.772 54.048 312.552 54.048C313.404 54.048 314.136 54.204 314.748 54.516C315.36 54.828 315.858 55.182 316.242 55.578L314.856 57.27C314.556 57.006 314.238 56.784 313.902 56.604C313.566 56.424 313.146 56.334 312.642 56.334C312.186 56.334 311.766 56.424 311.382 56.604C311.01 56.772 310.686 57.018 310.41 57.342C310.134 57.666 309.918 58.062 309.762 58.53C309.618 58.998 309.546 59.526 309.546 60.114C309.546 61.326 309.816 62.268 310.356 62.94C310.908 63.6 311.736 63.93 312.84 63.93C313.08 63.93 313.314 63.9 313.542 63.84C313.77 63.78 313.956 63.69 314.1 63.57V61.554H312.156V59.394H316.44V64.794C316.032 65.19 315.492 65.526 314.82 65.802C314.148 66.078 313.398 66.216 312.57 66.216ZM321.079 66.216C320.623 66.216 320.239 66.144 319.927 66C319.615 65.856 319.363 65.658 319.171 65.406C318.991 65.142 318.859 64.83 318.775 64.47C318.691 64.098 318.649 63.684 318.649 63.228V53.382H321.295V63.336C321.295 63.612 321.343 63.804 321.439 63.912C321.547 64.02 321.655 64.074 321.763 64.074C321.823 64.074 321.871 64.074 321.907 64.074C321.955 64.074 322.015 64.062 322.087 64.038L322.411 66C322.267 66.06 322.081 66.108 321.853 66.144C321.637 66.192 321.379 66.216 321.079 66.216ZM326.481 66.216C325.509 66.216 324.801 65.898 324.357 65.262C323.925 64.626 323.709 63.744 323.709 62.616V57.072H326.355V62.274C326.355 62.922 326.445 63.366 326.625 63.606C326.805 63.846 327.087 63.966 327.471 63.966C327.807 63.966 328.089 63.888 328.317 63.732C328.545 63.576 328.791 63.324 329.055 62.976V57.072H331.701V66H329.541L329.343 64.758H329.289C328.905 65.214 328.491 65.574 328.047 65.838C327.615 66.09 327.093 66.216 326.481 66.216ZM337.467 66.216C336.915 66.216 336.441 66.132 336.045 65.964C335.661 65.796 335.343 65.562 335.091 65.262C334.851 64.962 334.671 64.602 334.551 64.182C334.443 63.75 334.389 63.276 334.389 62.76V59.142H333.165V57.18L334.533 57.072L334.839 54.696H337.035V57.072H339.177V59.142H337.035V62.724C337.035 63.228 337.137 63.594 337.341 63.822C337.557 64.038 337.839 64.146 338.187 64.146C338.331 64.146 338.475 64.128 338.619 64.092C338.775 64.056 338.913 64.014 339.033 63.966L339.447 65.892C339.207 65.964 338.925 66.036 338.601 66.108C338.277 66.18 337.899 66.216 337.467 66.216ZM344.6 66.216C343.964 66.216 343.37 66.114 342.818 65.91C342.266 65.694 341.786 65.388 341.378 64.992C340.97 64.584 340.652 64.092 340.424 63.516C340.196 62.94 340.082 62.28 340.082 61.536C340.082 60.816 340.202 60.168 340.442 59.592C340.682 59.004 340.994 58.512 341.378 58.116C341.774 57.708 342.224 57.396 342.728 57.18C343.232 56.964 343.754 56.856 344.294 56.856C344.93 56.856 345.482 56.964 345.95 57.18C346.43 57.396 346.826 57.696 347.138 58.08C347.462 58.464 347.702 58.92 347.858 59.448C348.014 59.964 348.092 60.528 348.092 61.14C348.092 61.38 348.08 61.608 348.056 61.824C348.032 62.04 348.008 62.202 347.984 62.31H342.638C342.758 62.958 343.022 63.438 343.43 63.75C343.85 64.05 344.36 64.2 344.96 64.2C345.596 64.2 346.238 64.002 346.886 63.606L347.768 65.208C347.312 65.52 346.802 65.766 346.238 65.946C345.686 66.126 345.14 66.216 344.6 66.216ZM342.62 60.564H345.842C345.842 60.06 345.728 59.652 345.5 59.34C345.272 59.028 344.888 58.872 344.348 58.872C343.928 58.872 343.556 59.01 343.232 59.286C342.92 59.562 342.716 59.988 342.62 60.564ZM349.92 66V57.072H352.08L352.26 58.206H352.332C352.716 57.846 353.136 57.534 353.592 57.27C354.048 56.994 354.582 56.856 355.194 56.856C356.166 56.856 356.868 57.174 357.3 57.81C357.744 58.446 357.966 59.328 357.966 60.456V66H355.32V60.798C355.32 60.15 355.23 59.706 355.05 59.466C354.882 59.226 354.606 59.106 354.222 59.106C353.886 59.106 353.598 59.184 353.358 59.34C353.118 59.484 352.854 59.694 352.566 59.97V66H349.92ZM364.04 66V54.264H371.438V56.496H366.686V59.214H370.754V61.446H366.686V66H364.04ZM372.912 66V57.072H375.072L375.252 58.638H375.324C375.648 58.026 376.038 57.576 376.494 57.288C376.95 57 377.406 56.856 377.862 56.856C378.114 56.856 378.318 56.874 378.474 56.91C378.642 56.934 378.792 56.976 378.924 57.036L378.492 59.322C378.324 59.274 378.168 59.238 378.024 59.214C377.88 59.19 377.712 59.178 377.52 59.178C377.184 59.178 376.83 59.298 376.458 59.538C376.098 59.778 375.798 60.204 375.558 60.816V66H372.912ZM383.904 66.216C383.268 66.216 382.674 66.114 382.122 65.91C381.57 65.694 381.09 65.388 380.682 64.992C380.274 64.584 379.956 64.092 379.728 63.516C379.5 62.94 379.386 62.28 379.386 61.536C379.386 60.816 379.506 60.168 379.746 59.592C379.986 59.004 380.298 58.512 380.682 58.116C381.078 57.708 381.528 57.396 382.032 57.18C382.536 56.964 383.058 56.856 383.598 56.856C384.234 56.856 384.786 56.964 385.254 57.18C385.734 57.396 386.13 57.696 386.442 58.08C386.766 58.464 387.006 58.92 387.162 59.448C387.318 59.964 387.396 60.528 387.396 61.14C387.396 61.38 387.384 61.608 387.36 61.824C387.336 62.04 387.312 62.202 387.288 62.31H381.942C382.062 62.958 382.326 63.438 382.734 63.75C383.154 64.05 383.664 64.2 384.264 64.2C384.9 64.2 385.542 64.002 386.19 63.606L387.072 65.208C386.616 65.52 386.106 65.766 385.542 65.946C384.99 66.126 384.444 66.216 383.904 66.216ZM381.924 60.564H385.146C385.146 60.06 385.032 59.652 384.804 59.34C384.576 59.028 384.192 58.872 383.652 58.872C383.232 58.872 382.86 59.01 382.536 59.286C382.224 59.562 382.02 59.988 381.924 60.564ZM393.221 66.216C392.585 66.216 391.991 66.114 391.439 65.91C390.887 65.694 390.407 65.388 389.999 64.992C389.591 64.584 389.273 64.092 389.045 63.516C388.817 62.94 388.703 62.28 388.703 61.536C388.703 60.816 388.823 60.168 389.063 59.592C389.303 59.004 389.615 58.512 389.999 58.116C390.395 57.708 390.845 57.396 391.349 57.18C391.853 56.964 392.375 56.856 392.915 56.856C393.551 56.856 394.103 56.964 394.571 57.18C395.051 57.396 395.447 57.696 395.759 58.08C396.083 58.464 396.323 58.92 396.479 59.448C396.635 59.964 396.713 60.528 396.713 61.14C396.713 61.38 396.701 61.608 396.677 61.824C396.653 62.04 396.629 62.202 396.605 62.31H391.259C391.379 62.958 391.643 63.438 392.051 63.75C392.471 64.05 392.981 64.2 393.581 64.2C394.217 64.2 394.859 64.002 395.507 63.606L396.389 65.208C395.933 65.52 395.423 65.766 394.859 65.946C394.307 66.126 393.761 66.216 393.221 66.216ZM391.241 60.564H394.463C394.463 60.06 394.349 59.652 394.121 59.34C393.893 59.028 393.509 58.872 392.969 58.872C392.549 58.872 392.177 59.01 391.853 59.286C391.541 59.562 391.337 59.988 391.241 60.564Z" fill="#253F8E"/>
<path d="M489.42 66L485.874 54.264H488.682L490.086 59.736C490.266 60.384 490.422 61.014 490.554 61.626C490.698 62.226 490.86 62.85 491.04 63.498H491.112C491.28 62.85 491.436 62.226 491.58 61.626C491.724 61.014 491.88 60.384 492.048 59.736L493.434 54.264H496.134L492.606 66H489.42ZM500.834 66.216C500.198 66.216 499.604 66.114 499.052 65.91C498.5 65.694 498.02 65.388 497.612 64.992C497.204 64.584 496.886 64.092 496.658 63.516C496.43 62.94 496.316 62.28 496.316 61.536C496.316 60.816 496.436 60.168 496.676 59.592C496.916 59.004 497.228 58.512 497.612 58.116C498.008 57.708 498.458 57.396 498.962 57.18C499.466 56.964 499.988 56.856 500.528 56.856C501.164 56.856 501.716 56.964 502.184 57.18C502.664 57.396 503.06 57.696 503.372 58.08C503.696 58.464 503.936 58.92 504.092 59.448C504.248 59.964 504.326 60.528 504.326 61.14C504.326 61.38 504.314 61.608 504.29 61.824C504.266 62.04 504.242 62.202 504.218 62.31H498.872C498.992 62.958 499.256 63.438 499.664 63.75C500.084 64.05 500.594 64.2 501.194 64.2C501.83 64.2 502.472 64.002 503.12 63.606L504.002 65.208C503.546 65.52 503.036 65.766 502.472 65.946C501.92 66.126 501.374 66.216 500.834 66.216ZM498.854 60.564H502.076C502.076 60.06 501.962 59.652 501.734 59.34C501.506 59.028 501.122 58.872 500.582 58.872C500.162 58.872 499.79 59.01 499.466 59.286C499.154 59.562 498.95 59.988 498.854 60.564ZM509.165 69.798C508.637 69.798 508.145 69.75 507.689 69.654C507.245 69.57 506.849 69.438 506.501 69.258C506.165 69.078 505.901 68.844 505.709 68.556C505.517 68.268 505.421 67.926 505.421 67.53C505.421 66.81 505.847 66.21 506.699 65.73V65.658C506.459 65.502 506.261 65.304 506.105 65.064C505.949 64.824 505.871 64.518 505.871 64.146C505.871 63.822 505.967 63.516 506.159 63.228C506.351 62.928 506.591 62.676 506.879 62.472V62.4C506.567 62.184 506.285 61.878 506.033 61.482C505.793 61.074 505.673 60.606 505.673 60.078C505.673 59.538 505.775 59.07 505.979 58.674C506.183 58.266 506.453 57.93 506.789 57.666C507.137 57.39 507.533 57.186 507.977 57.054C508.421 56.922 508.883 56.856 509.363 56.856C509.891 56.856 510.353 56.928 510.749 57.072H514.007V58.998H512.585C512.669 59.13 512.735 59.298 512.783 59.502C512.843 59.706 512.873 59.928 512.873 60.168C512.873 60.684 512.783 61.134 512.603 61.518C512.423 61.89 512.171 62.202 511.847 62.454C511.535 62.694 511.163 62.874 510.731 62.994C510.311 63.114 509.855 63.174 509.363 63.174C509.015 63.174 508.655 63.114 508.283 62.994C508.163 63.09 508.079 63.186 508.031 63.282C507.983 63.378 507.959 63.504 507.959 63.66C507.959 63.888 508.055 64.056 508.247 64.164C508.451 64.272 508.805 64.326 509.309 64.326H510.749C511.853 64.326 512.693 64.506 513.269 64.866C513.857 65.214 514.151 65.79 514.151 66.594C514.151 67.062 514.031 67.488 513.791 67.872C513.563 68.268 513.233 68.604 512.801 68.88C512.369 69.168 511.847 69.39 511.235 69.546C510.623 69.714 509.933 69.798 509.165 69.798ZM509.363 61.572C509.711 61.572 509.999 61.452 510.227 61.212C510.467 60.96 510.587 60.582 510.587 60.078C510.587 59.61 510.467 59.256 510.227 59.016C509.999 58.764 509.711 58.638 509.363 58.638C509.015 58.638 508.721 58.758 508.481 58.998C508.253 59.238 508.139 59.598 508.139 60.078C508.139 60.582 508.253 60.96 508.481 61.212C508.721 61.452 509.015 61.572 509.363 61.572ZM509.579 68.142C510.179 68.142 510.671 68.034 511.055 67.818C511.439 67.614 511.631 67.356 511.631 67.044C511.631 66.768 511.511 66.582 511.271 66.486C511.043 66.39 510.707 66.342 510.263 66.342H509.345C509.033 66.342 508.781 66.33 508.589 66.306C508.397 66.294 508.229 66.27 508.085 66.234C507.761 66.522 507.599 66.816 507.599 67.116C507.599 67.452 507.779 67.704 508.139 67.872C508.499 68.052 508.979 68.142 509.579 68.142ZM519.273 66.216C518.637 66.216 518.043 66.114 517.491 65.91C516.939 65.694 516.459 65.388 516.051 64.992C515.643 64.584 515.325 64.092 515.097 63.516C514.869 62.94 514.755 62.28 514.755 61.536C514.755 60.816 514.875 60.168 515.115 59.592C515.355 59.004 515.667 58.512 516.051 58.116C516.447 57.708 516.897 57.396 517.401 57.18C517.905 56.964 518.427 56.856 518.967 56.856C519.603 56.856 520.155 56.964 520.623 57.18C521.103 57.396 521.499 57.696 521.811 58.08C522.135 58.464 522.375 58.92 522.531 59.448C522.687 59.964 522.765 60.528 522.765 61.14C522.765 61.38 522.753 61.608 522.729 61.824C522.705 62.04 522.681 62.202 522.657 62.31H517.311C517.431 62.958 517.695 63.438 518.103 63.75C518.523 64.05 519.033 64.2 519.633 64.2C520.269 64.2 520.911 64.002 521.559 63.606L522.441 65.208C521.985 65.52 521.475 65.766 520.911 65.946C520.359 66.126 519.813 66.216 519.273 66.216ZM517.293 60.564H520.515C520.515 60.06 520.401 59.652 520.173 59.34C519.945 59.028 519.561 58.872 519.021 58.872C518.601 58.872 518.229 59.01 517.905 59.286C517.593 59.562 517.389 59.988 517.293 60.564ZM527.856 66.216C527.304 66.216 526.83 66.132 526.434 65.964C526.05 65.796 525.732 65.562 525.48 65.262C525.24 64.962 525.06 64.602 524.94 64.182C524.832 63.75 524.778 63.276 524.778 62.76V59.142H523.554V57.18L524.922 57.072L525.228 54.696H527.424V57.072H529.566V59.142H527.424V62.724C527.424 63.228 527.526 63.594 527.73 63.822C527.946 64.038 528.228 64.146 528.576 64.146C528.72 64.146 528.864 64.128 529.008 64.092C529.164 64.056 529.302 64.014 529.422 63.966L529.836 65.892C529.596 65.964 529.314 66.036 528.99 66.108C528.666 66.18 528.288 66.216 527.856 66.216ZM533.207 66.216C532.799 66.216 532.427 66.144 532.091 66C531.767 65.868 531.491 65.682 531.263 65.442C531.035 65.19 530.855 64.902 530.723 64.578C530.603 64.254 530.543 63.9 530.543 63.516C530.543 62.58 530.939 61.848 531.731 61.32C532.523 60.792 533.801 60.438 535.565 60.258C535.541 59.862 535.421 59.55 535.205 59.322C535.001 59.082 534.653 58.962 534.161 58.962C533.777 58.962 533.393 59.034 533.009 59.178C532.637 59.322 532.235 59.52 531.803 59.772L530.849 58.026C531.425 57.678 532.025 57.396 532.649 57.18C533.285 56.964 533.957 56.856 534.665 56.856C535.817 56.856 536.693 57.186 537.293 57.846C537.905 58.494 538.211 59.508 538.211 60.888V66H536.051L535.871 65.082H535.799C535.415 65.418 535.013 65.694 534.593 65.91C534.173 66.114 533.711 66.216 533.207 66.216ZM534.107 64.164C534.407 64.164 534.665 64.098 534.881 63.966C535.097 63.834 535.325 63.648 535.565 63.408V61.842C534.629 61.974 533.981 62.166 533.621 62.418C533.261 62.67 533.081 62.97 533.081 63.318C533.081 63.606 533.171 63.822 533.351 63.966C533.543 64.098 533.795 64.164 534.107 64.164ZM540.449 66V57.072H542.609L542.789 58.638H542.861C543.185 58.026 543.575 57.576 544.031 57.288C544.487 57 544.943 56.856 545.399 56.856C545.651 56.856 545.855 56.874 546.011 56.91C546.179 56.934 546.329 56.976 546.461 57.036L546.029 59.322C545.861 59.274 545.705 59.238 545.561 59.214C545.417 59.19 545.249 59.178 545.057 59.178C544.721 59.178 544.367 59.298 543.995 59.538C543.635 59.778 543.335 60.204 543.095 60.816V66H540.449ZM547.621 66V57.072H550.267V66H547.621ZM548.935 55.758C548.491 55.758 548.125 55.632 547.837 55.38C547.549 55.116 547.405 54.78 547.405 54.372C547.405 53.964 547.549 53.634 547.837 53.382C548.125 53.13 548.491 53.004 548.935 53.004C549.391 53.004 549.757 53.13 550.033 53.382C550.321 53.634 550.465 53.964 550.465 54.372C550.465 54.78 550.321 55.116 550.033 55.38C549.757 55.632 549.391 55.758 548.935 55.758ZM554.846 66.216C554.438 66.216 554.066 66.144 553.73 66C553.406 65.868 553.13 65.682 552.902 65.442C552.674 65.19 552.494 64.902 552.362 64.578C552.242 64.254 552.182 63.9 552.182 63.516C552.182 62.58 552.578 61.848 553.37 61.32C554.162 60.792 555.44 60.438 557.204 60.258C557.18 59.862 557.06 59.55 556.844 59.322C556.64 59.082 556.292 58.962 555.8 58.962C555.416 58.962 555.032 59.034 554.648 59.178C554.276 59.322 553.874 59.52 553.442 59.772L552.488 58.026C553.064 57.678 553.664 57.396 554.288 57.18C554.924 56.964 555.596 56.856 556.304 56.856C557.456 56.856 558.332 57.186 558.932 57.846C559.544 58.494 559.85 59.508 559.85 60.888V66H557.69L557.51 65.082H557.438C557.054 65.418 556.652 65.694 556.232 65.91C555.812 66.114 555.35 66.216 554.846 66.216ZM555.746 64.164C556.046 64.164 556.304 64.098 556.52 63.966C556.736 63.834 556.964 63.648 557.204 63.408V61.842C556.268 61.974 555.62 62.166 555.26 62.418C554.9 62.67 554.72 62.97 554.72 63.318C554.72 63.606 554.81 63.822 554.99 63.966C555.182 64.098 555.434 64.164 555.746 64.164ZM562.088 66V57.072H564.248L564.428 58.206H564.5C564.884 57.846 565.304 57.534 565.76 57.27C566.216 56.994 566.75 56.856 567.362 56.856C568.334 56.856 569.036 57.174 569.468 57.81C569.912 58.446 570.134 59.328 570.134 60.456V66H567.488V60.798C567.488 60.15 567.398 59.706 567.218 59.466C567.05 59.226 566.774 59.106 566.39 59.106C566.054 59.106 565.766 59.184 565.526 59.34C565.286 59.484 565.022 59.694 564.734 59.97V66H562.088Z" fill="#253F8E"/>
<path d="M658.156 67.216C657.364 67.216 656.638 67.078 655.978 66.802C655.33 66.514 654.772 66.106 654.304 65.578C653.836 65.05 653.47 64.408 653.206 63.652C652.954 62.896 652.828 62.038 652.828 61.078C652.828 60.118 652.954 59.266 653.206 58.522C653.47 57.766 653.836 57.136 654.304 56.632C654.772 56.116 655.33 55.726 655.978 55.462C656.638 55.186 657.364 55.048 658.156 55.048C658.948 55.048 659.668 55.186 660.316 55.462C660.976 55.726 661.54 56.116 662.008 56.632C662.476 57.148 662.836 57.784 663.088 58.54C663.352 59.284 663.484 60.13 663.484 61.078C663.484 62.038 663.352 62.896 663.088 63.652C662.836 64.408 662.476 65.05 662.008 65.578C661.54 66.106 660.976 66.514 660.316 66.802C659.668 67.078 658.948 67.216 658.156 67.216ZM658.156 64.93C658.96 64.93 659.596 64.588 660.064 63.904C660.532 63.208 660.766 62.266 660.766 61.078C660.766 59.902 660.532 58.984 660.064 58.324C659.596 57.664 658.96 57.334 658.156 57.334C657.352 57.334 656.716 57.664 656.248 58.324C655.78 58.984 655.546 59.902 655.546 61.078C655.546 62.266 655.78 63.208 656.248 63.904C656.716 64.588 657.352 64.93 658.156 64.93ZM665.475 67V58.072H667.635L667.815 59.206H667.887C668.271 58.846 668.691 58.534 669.147 58.27C669.603 57.994 670.137 57.856 670.749 57.856C671.721 57.856 672.423 58.174 672.855 58.81C673.299 59.446 673.521 60.328 673.521 61.456V67H670.875V61.798C670.875 61.15 670.785 60.706 670.605 60.466C670.437 60.226 670.161 60.106 669.777 60.106C669.441 60.106 669.153 60.184 668.913 60.34C668.673 60.484 668.409 60.694 668.121 60.97V67H665.475ZM679.595 67V55.264H683.825C684.449 55.264 685.031 55.324 685.571 55.444C686.123 55.564 686.603 55.768 687.011 56.056C687.419 56.332 687.743 56.704 687.983 57.172C688.223 57.64 688.343 58.222 688.343 58.918C688.343 59.782 688.151 60.496 687.767 61.06C687.395 61.612 686.891 62.026 686.255 62.302L688.919 67H685.949L683.699 62.77H682.241V67H679.595ZM682.241 60.664H683.609C684.305 60.664 684.833 60.52 685.193 60.232C685.565 59.932 685.751 59.494 685.751 58.918C685.751 58.342 685.565 57.94 685.193 57.712C684.833 57.484 684.305 57.37 683.609 57.37H682.241V60.664ZM694.238 67.216C693.602 67.216 693.008 67.114 692.456 66.91C691.904 66.694 691.424 66.388 691.016 65.992C690.608 65.584 690.29 65.092 690.062 64.516C689.834 63.94 689.72 63.28 689.72 62.536C689.72 61.816 689.84 61.168 690.08 60.592C690.32 60.004 690.632 59.512 691.016 59.116C691.412 58.708 691.862 58.396 692.366 58.18C692.87 57.964 693.392 57.856 693.932 57.856C694.568 57.856 695.12 57.964 695.588 58.18C696.068 58.396 696.464 58.696 696.776 59.08C697.1 59.464 697.34 59.92 697.496 60.448C697.652 60.964 697.73 61.528 697.73 62.14C697.73 62.38 697.718 62.608 697.694 62.824C697.67 63.04 697.646 63.202 697.622 63.31H692.276C692.396 63.958 692.66 64.438 693.068 64.75C693.488 65.05 693.998 65.2 694.598 65.2C695.234 65.2 695.876 65.002 696.524 64.606L697.406 66.208C696.95 66.52 696.44 66.766 695.876 66.946C695.324 67.126 694.778 67.216 694.238 67.216ZM692.258 61.564H695.48C695.48 61.06 695.366 60.652 695.138 60.34C694.91 60.028 694.526 59.872 693.986 59.872C693.566 59.872 693.194 60.01 692.87 60.286C692.558 60.562 692.354 60.988 692.258 61.564ZM704.887 70.312V67.594L704.995 66.226C704.695 66.514 704.347 66.754 703.951 66.946C703.555 67.126 703.153 67.216 702.745 67.216C702.193 67.216 701.689 67.108 701.233 66.892C700.789 66.676 700.405 66.37 700.081 65.974C699.769 65.566 699.523 65.074 699.343 64.498C699.175 63.922 699.091 63.268 699.091 62.536C699.091 61.804 699.193 61.15 699.397 60.574C699.613 59.998 699.889 59.512 700.225 59.116C700.573 58.708 700.969 58.396 701.413 58.18C701.869 57.964 702.331 57.856 702.799 57.856C703.291 57.856 703.723 57.946 704.095 58.126C704.467 58.294 704.827 58.57 705.175 58.954H705.247L705.463 58.072H707.533V70.312H704.887ZM703.429 65.056C703.717 65.056 703.975 64.996 704.203 64.876C704.443 64.756 704.671 64.546 704.887 64.246V60.592C704.647 60.376 704.401 60.226 704.149 60.142C703.897 60.058 703.651 60.016 703.411 60.016C702.991 60.016 702.619 60.22 702.295 60.628C701.971 61.024 701.809 61.648 701.809 62.5C701.809 63.388 701.947 64.036 702.223 64.444C702.511 64.852 702.913 65.056 703.429 65.056ZM712.559 67.216C711.587 67.216 710.879 66.898 710.435 66.262C710.003 65.626 709.787 64.744 709.787 63.616V58.072H712.433V63.274C712.433 63.922 712.523 64.366 712.703 64.606C712.883 64.846 713.165 64.966 713.549 64.966C713.885 64.966 714.167 64.888 714.395 64.732C714.623 64.576 714.869 64.324 715.133 63.976V58.072H717.779V67H715.619L715.421 65.758H715.367C714.983 66.214 714.569 66.574 714.125 66.838C713.693 67.09 713.171 67.216 712.559 67.216ZM724.104 67.216C723.468 67.216 722.874 67.114 722.322 66.91C721.77 66.694 721.29 66.388 720.882 65.992C720.474 65.584 720.156 65.092 719.928 64.516C719.7 63.94 719.586 63.28 719.586 62.536C719.586 61.816 719.706 61.168 719.946 60.592C720.186 60.004 720.498 59.512 720.882 59.116C721.278 58.708 721.728 58.396 722.232 58.18C722.736 57.964 723.258 57.856 723.798 57.856C724.434 57.856 724.986 57.964 725.454 58.18C725.934 58.396 726.33 58.696 726.642 59.08C726.966 59.464 727.206 59.92 727.362 60.448C727.518 60.964 727.596 61.528 727.596 62.14C727.596 62.38 727.584 62.608 727.56 62.824C727.536 63.04 727.512 63.202 727.488 63.31H722.142C722.262 63.958 722.526 64.438 722.934 64.75C723.354 65.05 723.864 65.2 724.464 65.2C725.1 65.2 725.742 65.002 726.39 64.606L727.272 66.208C726.816 66.52 726.306 66.766 725.742 66.946C725.19 67.126 724.644 67.216 724.104 67.216ZM722.124 61.564H725.346C725.346 61.06 725.232 60.652 725.004 60.34C724.776 60.028 724.392 59.872 723.852 59.872C723.432 59.872 723.06 60.01 722.736 60.286C722.424 60.562 722.22 60.988 722.124 61.564ZM732.052 67.216C731.464 67.216 730.858 67.102 730.234 66.874C729.622 66.646 729.088 66.346 728.632 65.974L729.82 64.318C730.228 64.63 730.618 64.864 730.99 65.02C731.362 65.176 731.74 65.254 732.124 65.254C732.52 65.254 732.808 65.188 732.988 65.056C733.168 64.924 733.258 64.738 733.258 64.498C733.258 64.354 733.204 64.228 733.096 64.12C733 64 732.862 63.892 732.682 63.796C732.514 63.7 732.322 63.616 732.106 63.544C731.89 63.46 731.668 63.37 731.44 63.274C731.164 63.166 730.888 63.04 730.612 62.896C730.336 62.752 730.084 62.578 729.856 62.374C729.628 62.158 729.442 61.912 729.298 61.636C729.154 61.348 729.082 61.018 729.082 60.646C729.082 60.238 729.16 59.86 729.316 59.512C729.484 59.164 729.718 58.87 730.018 58.63C730.318 58.39 730.678 58.204 731.098 58.072C731.518 57.928 731.986 57.856 732.502 57.856C733.186 57.856 733.786 57.976 734.302 58.216C734.818 58.444 735.268 58.702 735.652 58.99L734.464 60.574C734.14 60.334 733.822 60.148 733.51 60.016C733.198 59.884 732.886 59.818 732.574 59.818C731.902 59.818 731.566 60.052 731.566 60.52C731.566 60.664 731.614 60.79 731.71 60.898C731.806 60.994 731.932 61.084 732.088 61.168C732.256 61.252 732.442 61.336 732.646 61.42C732.862 61.492 733.084 61.57 733.312 61.654C733.6 61.762 733.882 61.888 734.158 62.032C734.446 62.164 734.704 62.332 734.932 62.536C735.172 62.74 735.364 62.992 735.508 63.292C735.652 63.58 735.724 63.928 735.724 64.336C735.724 64.744 735.646 65.122 735.49 65.47C735.334 65.818 735.1 66.124 734.788 66.388C734.476 66.64 734.092 66.844 733.636 67C733.18 67.144 732.652 67.216 732.052 67.216ZM740.491 67.216C739.939 67.216 739.465 67.132 739.069 66.964C738.685 66.796 738.367 66.562 738.115 66.262C737.875 65.962 737.695 65.602 737.575 65.182C737.467 64.75 737.413 64.276 737.413 63.76V60.142H736.189V58.18L737.557 58.072L737.863 55.696H740.059V58.072H742.201V60.142H740.059V63.724C740.059 64.228 740.161 64.594 740.365 64.822C740.581 65.038 740.863 65.146 741.211 65.146C741.355 65.146 741.499 65.128 741.643 65.092C741.799 65.056 741.937 65.014 742.057 64.966L742.471 66.892C742.231 66.964 741.949 67.036 741.625 67.108C741.301 67.18 740.923 67.216 740.491 67.216Z" fill="#253F8E"/>
<path d="M489.42 129L485.874 117.264H488.682L490.086 122.736C490.266 123.384 490.422 124.014 490.554 124.626C490.698 125.226 490.86 125.85 491.04 126.498H491.112C491.28 125.85 491.436 125.226 491.58 124.626C491.724 124.014 491.88 123.384 492.048 122.736L493.434 117.264H496.134L492.606 129H489.42ZM500.834 129.216C500.198 129.216 499.604 129.114 499.052 128.91C498.5 128.694 498.02 128.388 497.612 127.992C497.204 127.584 496.886 127.092 496.658 126.516C496.43 125.94 496.316 125.28 496.316 124.536C496.316 123.816 496.436 123.168 496.676 122.592C496.916 122.004 497.228 121.512 497.612 121.116C498.008 120.708 498.458 120.396 498.962 120.18C499.466 119.964 499.988 119.856 500.528 119.856C501.164 119.856 501.716 119.964 502.184 120.18C502.664 120.396 503.06 120.696 503.372 121.08C503.696 121.464 503.936 121.92 504.092 122.448C504.248 122.964 504.326 123.528 504.326 124.14C504.326 124.38 504.314 124.608 504.29 124.824C504.266 125.04 504.242 125.202 504.218 125.31H498.872C498.992 125.958 499.256 126.438 499.664 126.75C500.084 127.05 500.594 127.2 501.194 127.2C501.83 127.2 502.472 127.002 503.12 126.606L504.002 128.208C503.546 128.52 503.036 128.766 502.472 128.946C501.92 129.126 501.374 129.216 500.834 129.216ZM498.854 123.564H502.076C502.076 123.06 501.962 122.652 501.734 122.34C501.506 122.028 501.122 121.872 500.582 121.872C500.162 121.872 499.79 122.01 499.466 122.286C499.154 122.562 498.95 122.988 498.854 123.564ZM509.165 132.798C508.637 132.798 508.145 132.75 507.689 132.654C507.245 132.57 506.849 132.438 506.501 132.258C506.165 132.078 505.901 131.844 505.709 131.556C505.517 131.268 505.421 130.926 505.421 130.53C505.421 129.81 505.847 129.21 506.699 128.73V128.658C506.459 128.502 506.261 128.304 506.105 128.064C505.949 127.824 505.871 127.518 505.871 127.146C505.871 126.822 505.967 126.516 506.159 126.228C506.351 125.928 506.591 125.676 506.879 125.472V125.4C506.567 125.184 506.285 124.878 506.033 124.482C505.793 124.074 505.673 123.606 505.673 123.078C505.673 122.538 505.775 122.07 505.979 121.674C506.183 121.266 506.453 120.93 506.789 120.666C507.137 120.39 507.533 120.186 507.977 120.054C508.421 119.922 508.883 119.856 509.363 119.856C509.891 119.856 510.353 119.928 510.749 120.072H514.007V121.998H512.585C512.669 122.13 512.735 122.298 512.783 122.502C512.843 122.706 512.873 122.928 512.873 123.168C512.873 123.684 512.783 124.134 512.603 124.518C512.423 124.89 512.171 125.202 511.847 125.454C511.535 125.694 511.163 125.874 510.731 125.994C510.311 126.114 509.855 126.174 509.363 126.174C509.015 126.174 508.655 126.114 508.283 125.994C508.163 126.09 508.079 126.186 508.031 126.282C507.983 126.378 507.959 126.504 507.959 126.66C507.959 126.888 508.055 127.056 508.247 127.164C508.451 127.272 508.805 127.326 509.309 127.326H510.749C511.853 127.326 512.693 127.506 513.269 127.866C513.857 128.214 514.151 128.79 514.151 129.594C514.151 130.062 514.031 130.488 513.791 130.872C513.563 131.268 513.233 131.604 512.801 131.88C512.369 132.168 511.847 132.39 511.235 132.546C510.623 132.714 509.933 132.798 509.165 132.798ZM509.363 124.572C509.711 124.572 509.999 124.452 510.227 124.212C510.467 123.96 510.587 123.582 510.587 123.078C510.587 122.61 510.467 122.256 510.227 122.016C509.999 121.764 509.711 121.638 509.363 121.638C509.015 121.638 508.721 121.758 508.481 121.998C508.253 122.238 508.139 122.598 508.139 123.078C508.139 123.582 508.253 123.96 508.481 124.212C508.721 124.452 509.015 124.572 509.363 124.572ZM509.579 131.142C510.179 131.142 510.671 131.034 511.055 130.818C511.439 130.614 511.631 130.356 511.631 130.044C511.631 129.768 511.511 129.582 511.271 129.486C511.043 129.39 510.707 129.342 510.263 129.342H509.345C509.033 129.342 508.781 129.33 508.589 129.306C508.397 129.294 508.229 129.27 508.085 129.234C507.761 129.522 507.599 129.816 507.599 130.116C507.599 130.452 507.779 130.704 508.139 130.872C508.499 131.052 508.979 131.142 509.579 131.142ZM517.51 129.216C517.102 129.216 516.73 129.144 516.394 129C516.07 128.868 515.794 128.682 515.566 128.442C515.338 128.19 515.158 127.902 515.026 127.578C514.906 127.254 514.846 126.9 514.846 126.516C514.846 125.58 515.242 124.848 516.034 124.32C516.826 123.792 518.104 123.438 519.868 123.258C519.844 122.862 519.724 122.55 519.508 122.322C519.304 122.082 518.956 121.962 518.464 121.962C518.08 121.962 517.696 122.034 517.312 122.178C516.94 122.322 516.538 122.52 516.106 122.772L515.152 121.026C515.728 120.678 516.328 120.396 516.952 120.18C517.588 119.964 518.26 119.856 518.968 119.856C520.12 119.856 520.996 120.186 521.596 120.846C522.208 121.494 522.514 122.508 522.514 123.888V129H520.354L520.174 128.082H520.102C519.718 128.418 519.316 128.694 518.896 128.91C518.476 129.114 518.014 129.216 517.51 129.216ZM518.41 127.164C518.71 127.164 518.968 127.098 519.184 126.966C519.4 126.834 519.628 126.648 519.868 126.408V124.842C518.932 124.974 518.284 125.166 517.924 125.418C517.564 125.67 517.384 125.97 517.384 126.318C517.384 126.606 517.474 126.822 517.654 126.966C517.846 127.098 518.098 127.164 518.41 127.164ZM524.752 129V120.072H526.912L527.092 121.206H527.164C527.548 120.846 527.968 120.534 528.424 120.27C528.88 119.994 529.414 119.856 530.026 119.856C530.998 119.856 531.7 120.174 532.132 120.81C532.576 121.446 532.798 122.328 532.798 123.456V129H530.152V123.798C530.152 123.15 530.062 122.706 529.882 122.466C529.714 122.226 529.438 122.106 529.054 122.106C528.718 122.106 528.43 122.184 528.19 122.34C527.95 122.484 527.686 122.694 527.398 122.97V129H524.752Z" fill="#253F8E"/>
<path d="M307.386 128V116.264H310.698C311.598 116.264 312.408 116.378 313.128 116.606C313.848 116.834 314.466 117.188 314.982 117.668C315.498 118.136 315.894 118.736 316.17 119.468C316.446 120.2 316.584 121.07 316.584 122.078C316.584 123.086 316.446 123.962 316.17 124.706C315.894 125.45 315.504 126.068 315 126.56C314.496 127.04 313.89 127.4 313.182 127.64C312.486 127.88 311.706 128 310.842 128H307.386ZM310.032 125.858H310.536C311.04 125.858 311.496 125.792 311.904 125.66C312.312 125.528 312.66 125.318 312.948 125.03C313.236 124.73 313.458 124.34 313.614 123.86C313.782 123.38 313.866 122.786 313.866 122.078C313.866 121.382 313.782 120.8 313.614 120.332C313.458 119.852 313.236 119.474 312.948 119.198C312.66 118.91 312.312 118.706 311.904 118.586C311.496 118.466 311.04 118.406 310.536 118.406H310.032V125.858ZM320.846 128.216C320.438 128.216 320.066 128.144 319.73 128C319.406 127.868 319.13 127.682 318.902 127.442C318.674 127.19 318.494 126.902 318.362 126.578C318.242 126.254 318.182 125.9 318.182 125.516C318.182 124.58 318.578 123.848 319.37 123.32C320.162 122.792 321.44 122.438 323.204 122.258C323.18 121.862 323.06 121.55 322.844 121.322C322.64 121.082 322.292 120.962 321.8 120.962C321.416 120.962 321.032 121.034 320.648 121.178C320.276 121.322 319.874 121.52 319.442 121.772L318.488 120.026C319.064 119.678 319.664 119.396 320.288 119.18C320.924 118.964 321.596 118.856 322.304 118.856C323.456 118.856 324.332 119.186 324.932 119.846C325.544 120.494 325.85 121.508 325.85 122.888V128H323.69L323.51 127.082H323.438C323.054 127.418 322.652 127.694 322.232 127.91C321.812 128.114 321.35 128.216 320.846 128.216ZM321.746 126.164C322.046 126.164 322.304 126.098 322.52 125.966C322.736 125.834 322.964 125.648 323.204 125.408V123.842C322.268 123.974 321.62 124.166 321.26 124.418C320.9 124.67 320.72 124.97 320.72 125.318C320.72 125.606 320.81 125.822 320.99 125.966C321.182 126.098 321.434 126.164 321.746 126.164ZM328.088 128V119.072H330.734V128H328.088ZM329.402 117.758C328.958 117.758 328.592 117.632 328.304 117.38C328.016 117.116 327.872 116.78 327.872 116.372C327.872 115.964 328.016 115.634 328.304 115.382C328.592 115.13 328.958 115.004 329.402 115.004C329.858 115.004 330.224 115.13 330.5 115.382C330.788 115.634 330.932 115.964 330.932 116.372C330.932 116.78 330.788 117.116 330.5 117.38C330.224 117.632 329.858 117.758 329.402 117.758ZM333.063 128V119.072H335.223L335.403 120.638H335.475C335.799 120.026 336.189 119.576 336.645 119.288C337.101 119 337.557 118.856 338.013 118.856C338.265 118.856 338.469 118.874 338.625 118.91C338.793 118.934 338.943 118.976 339.075 119.036L338.643 121.322C338.475 121.274 338.319 121.238 338.175 121.214C338.031 121.19 337.863 121.178 337.671 121.178C337.335 121.178 336.981 121.298 336.609 121.538C336.249 121.778 335.949 122.204 335.709 122.816V128H333.063ZM341.348 131.492C341.072 131.492 340.838 131.474 340.646 131.438C340.454 131.414 340.268 131.372 340.088 131.312L340.556 129.296C340.64 129.32 340.736 129.344 340.844 129.368C340.952 129.392 341.054 129.404 341.15 129.404C341.594 129.404 341.936 129.296 342.176 129.08C342.416 128.864 342.596 128.582 342.716 128.234L342.842 127.766L339.404 119.072H342.068L343.346 122.906C343.478 123.314 343.598 123.728 343.706 124.148C343.814 124.568 343.928 125 344.048 125.444H344.12C344.216 125.024 344.312 124.604 344.408 124.184C344.516 123.752 344.624 123.326 344.732 122.906L345.812 119.072H348.35L345.254 128.09C345.038 128.654 344.81 129.146 344.57 129.566C344.342 129.998 344.072 130.352 343.76 130.628C343.46 130.916 343.112 131.132 342.716 131.276C342.332 131.42 341.876 131.492 341.348 131.492ZM353.564 128V116.264H360.962V118.496H356.21V121.214H360.278V123.446H356.21V128H353.564ZM362.436 128V119.072H364.596L364.776 120.638H364.848C365.172 120.026 365.562 119.576 366.018 119.288C366.474 119 366.93 118.856 367.386 118.856C367.638 118.856 367.842 118.874 367.998 118.91C368.166 118.934 368.316 118.976 368.448 119.036L368.016 121.322C367.848 121.274 367.692 121.238 367.548 121.214C367.404 121.19 367.236 121.178 367.044 121.178C366.708 121.178 366.354 121.298 365.982 121.538C365.622 121.778 365.322 122.204 365.082 122.816V128H362.436ZM373.428 128.216C372.792 128.216 372.198 128.114 371.646 127.91C371.094 127.694 370.614 127.388 370.206 126.992C369.798 126.584 369.48 126.092 369.252 125.516C369.024 124.94 368.91 124.28 368.91 123.536C368.91 122.816 369.03 122.168 369.27 121.592C369.51 121.004 369.822 120.512 370.206 120.116C370.602 119.708 371.052 119.396 371.556 119.18C372.06 118.964 372.582 118.856 373.122 118.856C373.758 118.856 374.31 118.964 374.778 119.18C375.258 119.396 375.654 119.696 375.966 120.08C376.29 120.464 376.53 120.92 376.686 121.448C376.842 121.964 376.92 122.528 376.92 123.14C376.92 123.38 376.908 123.608 376.884 123.824C376.86 124.04 376.836 124.202 376.812 124.31H371.466C371.586 124.958 371.85 125.438 372.258 125.75C372.678 126.05 373.188 126.2 373.788 126.2C374.424 126.2 375.066 126.002 375.714 125.606L376.596 127.208C376.14 127.52 375.63 127.766 375.066 127.946C374.514 128.126 373.968 128.216 373.428 128.216ZM371.448 122.564H374.67C374.67 122.06 374.556 121.652 374.328 121.34C374.1 121.028 373.716 120.872 373.176 120.872C372.756 120.872 372.384 121.01 372.06 121.286C371.748 121.562 371.544 121.988 371.448 122.564ZM382.744 128.216C382.108 128.216 381.514 128.114 380.962 127.91C380.41 127.694 379.93 127.388 379.522 126.992C379.114 126.584 378.796 126.092 378.568 125.516C378.34 124.94 378.226 124.28 378.226 123.536C378.226 122.816 378.346 122.168 378.586 121.592C378.826 121.004 379.138 120.512 379.522 120.116C379.918 119.708 380.368 119.396 380.872 119.18C381.376 118.964 381.898 118.856 382.438 118.856C383.074 118.856 383.626 118.964 384.094 119.18C384.574 119.396 384.97 119.696 385.282 120.08C385.606 120.464 385.846 120.92 386.002 121.448C386.158 121.964 386.236 122.528 386.236 123.14C386.236 123.38 386.224 123.608 386.2 123.824C386.176 124.04 386.152 124.202 386.128 124.31H380.782C380.902 124.958 381.166 125.438 381.574 125.75C381.994 126.05 382.504 126.2 383.104 126.2C383.74 126.2 384.382 126.002 385.03 125.606L385.912 127.208C385.456 127.52 384.946 127.766 384.382 127.946C383.83 128.126 383.284 128.216 382.744 128.216ZM380.764 122.564H383.986C383.986 122.06 383.872 121.652 383.644 121.34C383.416 121.028 383.032 120.872 382.492 120.872C382.072 120.872 381.7 121.01 381.376 121.286C381.064 121.562 380.86 121.988 380.764 122.564Z" fill="#253F8E"/>
<line x1="217" y1="38" x2="217" y2="142" stroke="#253F8E" stroke-width="2"/>
<line y1="174" x2="952" y2="174" stroke="#253F8E" stroke-width="2"/>
<line y1="1" x2="952" y2="1" stroke="#253F8E" stroke-width="2"/>
<circle cx="274.5" cy="59.5" r="20.5" fill="#6E5D9F"/>
<path d="M273.729 63.5498C273.231 64.0889 272.619 64.4961 271.893 64.7715C271.172 65.041 270.381 65.1758 269.52 65.1758C268.049 65.1758 266.906 64.7217 266.092 63.8135C265.277 62.8994 264.858 61.5723 264.835 59.832V57.5293C264.835 55.7656 265.219 54.4092 265.986 53.46C266.76 52.5049 267.885 52.0273 269.361 52.0273C270.75 52.0273 271.796 52.3701 272.499 53.0557C273.208 53.7412 273.618 54.8164 273.729 56.2812H271.216C271.146 55.4668 270.976 54.9131 270.706 54.6201C270.437 54.3213 270.015 54.1719 269.44 54.1719C268.743 54.1719 268.236 54.4268 267.92 54.9365C267.604 55.4463 267.439 56.2578 267.428 57.3711V59.6914C267.428 60.8574 267.601 61.707 267.946 62.2402C268.298 62.7676 268.872 63.0312 269.669 63.0312C270.179 63.0312 270.592 62.9287 270.908 62.7236L271.137 62.5654V60.2188H269.326V58.2676H273.729V63.5498ZM282.158 59.7793H278.142V65H275.558V52.2031H282.642V54.3564H278.142V57.6348H282.158V59.7793Z" fill="#F9F9F9"/>
<circle cx="274.5" cy="121.5" r="20.5" fill="#DE343A"/>
<path d="M265.028 127V114.203H268.412C269.906 114.203 271.096 114.678 271.98 115.627C272.871 116.576 273.325 117.877 273.343 119.529V121.604C273.343 123.285 272.897 124.606 272.007 125.567C271.122 126.522 269.9 127 268.342 127H265.028ZM267.612 116.356V124.855H268.386C269.247 124.855 269.854 124.63 270.205 124.179C270.557 123.722 270.741 122.937 270.759 121.823V119.6C270.759 118.404 270.592 117.572 270.258 117.104C269.924 116.629 269.355 116.38 268.553 116.356H267.612ZM281.807 121.779H277.79V127H275.206V114.203H282.29V116.356H277.79V119.635H281.807V121.779Z" fill="#F9F9F9"/>
<circle cx="447.5" cy="122.5" r="20.5" fill="#6FB74D"/>
<path d="M448.194 124.484L450.348 115.203H453.23L449.539 128H446.85L443.185 115.203H446.05L448.194 124.484Z" fill="#F9F9F9"/>
<circle cx="447.5" cy="60.5" r="20.5" fill="#92CD76"/>
<path d="M442.194 62.4844L444.348 53.2031H447.23L443.539 66H440.85L437.185 53.2031H440.05L442.194 62.4844ZM457.013 64.5498C456.515 65.0889 455.902 65.4961 455.176 65.7715C454.455 66.041 453.664 66.1758 452.803 66.1758C451.332 66.1758 450.189 65.7217 449.375 64.8135C448.561 63.8994 448.142 62.5723 448.118 60.832V58.5293C448.118 56.7656 448.502 55.4092 449.27 54.46C450.043 53.5049 451.168 53.0273 452.645 53.0273C454.033 53.0273 455.079 53.3701 455.782 54.0557C456.491 54.7412 456.901 55.8164 457.013 57.2812H454.499C454.429 56.4668 454.259 55.9131 453.989 55.6201C453.72 55.3213 453.298 55.1719 452.724 55.1719C452.026 55.1719 451.52 55.4268 451.203 55.9365C450.887 56.4463 450.723 57.2578 450.711 58.3711V60.6914C450.711 61.8574 450.884 62.707 451.229 63.2402C451.581 63.7676 452.155 64.0312 452.952 64.0312C453.462 64.0312 453.875 63.9287 454.191 63.7236L454.42 63.5654V61.2188H452.609V59.2676H457.013V64.5498Z" fill="#F9F9F9"/>
<circle cx="614.5" cy="60.5" r="20.5" fill="#DA880F"/>
<path d="M613.008 60.7266L609.316 59.6836L610.02 57.5508L613.652 59.0273L613.43 54.9375H615.727L615.492 59.1094L619.055 57.668L619.746 59.8125L615.996 60.8672L618.457 63.9727L616.582 65.2969L614.449 61.8867L612.328 65.1914L610.465 63.9141L613.008 60.7266Z" fill="#F9F9F9"/>
</svg>
