<svg width="221" height="444" viewBox="0 0 221 444" fill="none" xmlns="http://www.w3.org/2000/svg">
<path d="M38.9121 67.3623H34.0171L33.0649 71H29.2686L34.8228 53.2266H38.1064L43.6973 71H39.8643L38.9121 67.3623ZM34.7983 64.3716H38.1187L36.4585 58.0361L34.7983 64.3716ZM48.9585 68.0215H55.2573V71H45.3696V53.2266H48.9585V68.0215ZM60.9214 68.0215H67.2202V71H57.3325V53.2266H60.9214V68.0215ZM78.4751 63.3096H72.8843V68.0215H79.5005V71H69.2954V53.2266H79.4761V56.2173H72.8843V60.4165H78.4751V63.3096ZM86.959 64.5059H85.1768V71H81.5879V53.2266H87.313C89.1115 53.2266 90.499 53.6945 91.4756 54.6304C92.4603 55.5581 92.9526 56.8805 92.9526 58.5977C92.9526 60.9577 92.0941 62.6097 90.377 63.5537L93.4897 70.8291V71H89.6323L86.959 64.5059ZM85.1768 61.5151H87.2153C87.9315 61.5151 88.4686 61.2791 88.8267 60.8071C89.1847 60.327 89.3638 59.6882 89.3638 58.8906C89.3638 57.1084 88.668 56.2173 87.2764 56.2173H85.1768V61.5151ZM107.503 68.9858C106.812 69.7345 105.961 70.3001 104.952 70.6826C103.951 71.057 102.853 71.2441 101.656 71.2441C99.6136 71.2441 98.0267 70.6134 96.8955 69.3521C95.7643 68.0825 95.1825 66.2393 95.1499 63.8223V60.624C95.1499 58.1745 95.6829 56.2905 96.749 54.9722C97.8232 53.6457 99.3857 52.9824 101.437 52.9824C103.365 52.9824 104.818 53.4585 105.794 54.4106C106.779 55.3628 107.349 56.8561 107.503 58.8906H104.012C103.915 57.7594 103.679 56.9904 103.304 56.5835C102.93 56.1685 102.344 55.9609 101.546 55.9609C100.578 55.9609 99.874 56.3149 99.4346 57.0229C98.9951 57.731 98.7673 58.8581 98.751 60.4043V63.627C98.751 65.2464 98.991 66.4264 99.4712 67.167C99.9595 67.8994 100.757 68.2656 101.864 68.2656C102.572 68.2656 103.146 68.1232 103.585 67.8384L103.902 67.6187V64.3594H101.388V61.6494H107.503V68.9858ZM119.222 63.3096H113.631V68.0215H120.248V71H110.042V53.2266H120.223V56.2173H113.631V60.4165H119.222V63.3096ZM134.75 71H131.161L125.912 59.3423V71H122.323V53.2266H125.912L131.173 64.8965V53.2266H134.75V71ZM148.397 64.1396L146.981 65.9219V71H143.392V53.2266H146.981V60.978L148.116 59.0615L151.424 53.2266H155.819L150.729 61.0391L155.904 71H151.644L148.397 64.1396ZM166.415 63.3096H160.824V68.0215H167.44V71H157.235V53.2266H167.416V56.2173H160.824V60.4165H166.415V63.3096ZM174.874 61.21L177.547 53.2266H181.454L176.693 64.5547V71H173.055V64.5547L168.282 53.2266H172.188L174.874 61.21Z" fill="#ED1C24"/>
<line x1="218" y1="125" y2="125" stroke="#253F8E" stroke-width="2"/>
<line x1="218" y1="1" y2="1" stroke="#253F8E" stroke-width="2"/>
<line x1="5" y1="443" x2="221" y2="443" stroke="#253F8E" stroke-width="2"/>
<path d="M87.57 172.216C86.766 172.216 86.01 172.09 85.302 171.838C84.606 171.574 84 171.19 83.484 170.686C82.968 170.182 82.56 169.558 82.26 168.814C81.972 168.058 81.828 167.188 81.828 166.204C81.828 165.232 81.978 164.368 82.278 163.612C82.578 162.844 82.986 162.196 83.502 161.668C84.03 161.14 84.642 160.738 85.338 160.462C86.034 160.186 86.772 160.048 87.552 160.048C88.404 160.048 89.136 160.204 89.748 160.516C90.36 160.828 90.858 161.182 91.242 161.578L89.856 163.27C89.556 163.006 89.238 162.784 88.902 162.604C88.566 162.424 88.146 162.334 87.642 162.334C87.186 162.334 86.766 162.424 86.382 162.604C86.01 162.772 85.686 163.018 85.41 163.342C85.134 163.666 84.918 164.062 84.762 164.53C84.618 164.998 84.546 165.526 84.546 166.114C84.546 167.326 84.816 168.268 85.356 168.94C85.908 169.6 86.736 169.93 87.84 169.93C88.08 169.93 88.314 169.9 88.542 169.84C88.77 169.78 88.956 169.69 89.1 169.57V167.554H87.156V165.394H91.44V170.794C91.032 171.19 90.492 171.526 89.82 171.802C89.148 172.078 88.398 172.216 87.57 172.216ZM96.0785 172.216C95.6225 172.216 95.2385 172.144 94.9265 172C94.6145 171.856 94.3625 171.658 94.1705 171.406C93.9905 171.142 93.8585 170.83 93.7745 170.47C93.6905 170.098 93.6485 169.684 93.6485 169.228V159.382H96.2945V169.336C96.2945 169.612 96.3425 169.804 96.4385 169.912C96.5465 170.02 96.6545 170.074 96.7625 170.074C96.8225 170.074 96.8705 170.074 96.9065 170.074C96.9545 170.074 97.0145 170.062 97.0865 170.038L97.4105 172C97.2665 172.06 97.0805 172.108 96.8525 172.144C96.6365 172.192 96.3785 172.216 96.0785 172.216ZM101.481 172.216C100.509 172.216 99.8009 171.898 99.3569 171.262C98.9249 170.626 98.7089 169.744 98.7089 168.616V163.072H101.355V168.274C101.355 168.922 101.445 169.366 101.625 169.606C101.805 169.846 102.087 169.966 102.471 169.966C102.807 169.966 103.089 169.888 103.317 169.732C103.545 169.576 103.791 169.324 104.055 168.976V163.072H106.701V172H104.541L104.343 170.758H104.289C103.905 171.214 103.491 171.574 103.047 171.838C102.615 172.09 102.093 172.216 101.481 172.216ZM112.467 172.216C111.915 172.216 111.441 172.132 111.045 171.964C110.661 171.796 110.343 171.562 110.091 171.262C109.851 170.962 109.671 170.602 109.551 170.182C109.443 169.75 109.389 169.276 109.389 168.76V165.142H108.165V163.18L109.533 163.072L109.839 160.696H112.035V163.072H114.177V165.142H112.035V168.724C112.035 169.228 112.137 169.594 112.341 169.822C112.557 170.038 112.839 170.146 113.187 170.146C113.331 170.146 113.475 170.128 113.619 170.092C113.775 170.056 113.913 170.014 114.033 169.966L114.447 171.892C114.207 171.964 113.925 172.036 113.601 172.108C113.277 172.18 112.899 172.216 112.467 172.216ZM119.6 172.216C118.964 172.216 118.37 172.114 117.818 171.91C117.266 171.694 116.786 171.388 116.378 170.992C115.97 170.584 115.652 170.092 115.424 169.516C115.196 168.94 115.082 168.28 115.082 167.536C115.082 166.816 115.202 166.168 115.442 165.592C115.682 165.004 115.994 164.512 116.378 164.116C116.774 163.708 117.224 163.396 117.728 163.18C118.232 162.964 118.754 162.856 119.294 162.856C119.93 162.856 120.482 162.964 120.95 163.18C121.43 163.396 121.826 163.696 122.138 164.08C122.462 164.464 122.702 164.92 122.858 165.448C123.014 165.964 123.092 166.528 123.092 167.14C123.092 167.38 123.08 167.608 123.056 167.824C123.032 168.04 123.008 168.202 122.984 168.31H117.638C117.758 168.958 118.022 169.438 118.43 169.75C118.85 170.05 119.36 170.2 119.96 170.2C120.596 170.2 121.238 170.002 121.886 169.606L122.768 171.208C122.312 171.52 121.802 171.766 121.238 171.946C120.686 172.126 120.14 172.216 119.6 172.216ZM117.62 166.564H120.842C120.842 166.06 120.728 165.652 120.5 165.34C120.272 165.028 119.888 164.872 119.348 164.872C118.928 164.872 118.556 165.01 118.232 165.286C117.92 165.562 117.716 165.988 117.62 166.564ZM124.92 172V163.072H127.08L127.26 164.206H127.332C127.716 163.846 128.136 163.534 128.592 163.27C129.048 162.994 129.582 162.856 130.194 162.856C131.166 162.856 131.868 163.174 132.3 163.81C132.744 164.446 132.966 165.328 132.966 166.456V172H130.32V166.798C130.32 166.15 130.23 165.706 130.05 165.466C129.882 165.226 129.606 165.106 129.222 165.106C128.886 165.106 128.598 165.184 128.358 165.34C128.118 165.484 127.854 165.694 127.566 165.97V172H124.92ZM139.04 172V160.264H146.438V162.496H141.686V165.214H145.754V167.446H141.686V172H139.04ZM147.912 172V163.072H150.072L150.252 164.638H150.324C150.648 164.026 151.038 163.576 151.494 163.288C151.95 163 152.406 162.856 152.862 162.856C153.114 162.856 153.318 162.874 153.474 162.91C153.642 162.934 153.792 162.976 153.924 163.036L153.492 165.322C153.324 165.274 153.168 165.238 153.024 165.214C152.88 165.19 152.712 165.178 152.52 165.178C152.184 165.178 151.83 165.298 151.458 165.538C151.098 165.778 150.798 166.204 150.558 166.816V172H147.912ZM158.904 172.216C158.268 172.216 157.674 172.114 157.122 171.91C156.57 171.694 156.09 171.388 155.682 170.992C155.274 170.584 154.956 170.092 154.728 169.516C154.5 168.94 154.386 168.28 154.386 167.536C154.386 166.816 154.506 166.168 154.746 165.592C154.986 165.004 155.298 164.512 155.682 164.116C156.078 163.708 156.528 163.396 157.032 163.18C157.536 162.964 158.058 162.856 158.598 162.856C159.234 162.856 159.786 162.964 160.254 163.18C160.734 163.396 161.13 163.696 161.442 164.08C161.766 164.464 162.006 164.92 162.162 165.448C162.318 165.964 162.396 166.528 162.396 167.14C162.396 167.38 162.384 167.608 162.36 167.824C162.336 168.04 162.312 168.202 162.288 168.31H156.942C157.062 168.958 157.326 169.438 157.734 169.75C158.154 170.05 158.664 170.2 159.264 170.2C159.9 170.2 160.542 170.002 161.19 169.606L162.072 171.208C161.616 171.52 161.106 171.766 160.542 171.946C159.99 172.126 159.444 172.216 158.904 172.216ZM156.924 166.564H160.146C160.146 166.06 160.032 165.652 159.804 165.34C159.576 165.028 159.192 164.872 158.652 164.872C158.232 164.872 157.86 165.01 157.536 165.286C157.224 165.562 157.02 165.988 156.924 166.564ZM168.221 172.216C167.585 172.216 166.991 172.114 166.439 171.91C165.887 171.694 165.407 171.388 164.999 170.992C164.591 170.584 164.273 170.092 164.045 169.516C163.817 168.94 163.703 168.28 163.703 167.536C163.703 166.816 163.823 166.168 164.063 165.592C164.303 165.004 164.615 164.512 164.999 164.116C165.395 163.708 165.845 163.396 166.349 163.18C166.853 162.964 167.375 162.856 167.915 162.856C168.551 162.856 169.103 162.964 169.571 163.18C170.051 163.396 170.447 163.696 170.759 164.08C171.083 164.464 171.323 164.92 171.479 165.448C171.635 165.964 171.713 166.528 171.713 167.14C171.713 167.38 171.701 167.608 171.677 167.824C171.653 168.04 171.629 168.202 171.605 168.31H166.259C166.379 168.958 166.643 169.438 167.051 169.75C167.471 170.05 167.981 170.2 168.581 170.2C169.217 170.2 169.859 170.002 170.507 169.606L171.389 171.208C170.933 171.52 170.423 171.766 169.859 171.946C169.307 172.126 168.761 172.216 168.221 172.216ZM166.241 166.564H169.463C169.463 166.06 169.349 165.652 169.121 165.34C168.893 165.028 168.509 164.872 167.969 164.872C167.549 164.872 167.177 165.01 166.853 165.286C166.541 165.562 166.337 165.988 166.241 166.564Z" fill="#253F8E"/>
<circle cx="49.5" cy="165.5" r="20.5" fill="#6E5D9F"/>
<path d="M48.7295 169.55C48.2314 170.089 47.6191 170.496 46.8926 170.771C46.1719 171.041 45.3809 171.176 44.5195 171.176C43.0488 171.176 41.9062 170.722 41.0918 169.813C40.2773 168.899 39.8584 167.572 39.835 165.832V163.529C39.835 161.766 40.2188 160.409 40.9863 159.46C41.7598 158.505 42.8848 158.027 44.3613 158.027C45.75 158.027 46.7959 158.37 47.499 159.056C48.208 159.741 48.6182 160.816 48.7295 162.281H46.2158C46.1455 161.467 45.9756 160.913 45.7061 160.62C45.4365 160.321 45.0146 160.172 44.4404 160.172C43.7432 160.172 43.2363 160.427 42.9199 160.937C42.6035 161.446 42.4395 162.258 42.4277 163.371V165.691C42.4277 166.857 42.6006 167.707 42.9463 168.24C43.2979 168.768 43.8721 169.031 44.6689 169.031C45.1787 169.031 45.5918 168.929 45.9082 168.724L46.1367 168.565V166.219H44.3262V164.268H48.7295V169.55ZM57.1582 165.779H53.1416V171H50.5576V158.203H57.6416V160.356H53.1416V163.635H57.1582V165.779Z" fill="#F9F9F9"/>
<path d="M82.386 231V219.264H85.698C86.598 219.264 87.408 219.378 88.128 219.606C88.848 219.834 89.466 220.188 89.982 220.668C90.498 221.136 90.894 221.736 91.17 222.468C91.446 223.2 91.584 224.07 91.584 225.078C91.584 226.086 91.446 226.962 91.17 227.706C90.894 228.45 90.504 229.068 90 229.56C89.496 230.04 88.89 230.4 88.182 230.64C87.486 230.88 86.706 231 85.842 231H82.386ZM85.032 228.858H85.536C86.04 228.858 86.496 228.792 86.904 228.66C87.312 228.528 87.66 228.318 87.948 228.03C88.236 227.73 88.458 227.34 88.614 226.86C88.782 226.38 88.866 225.786 88.866 225.078C88.866 224.382 88.782 223.8 88.614 223.332C88.458 222.852 88.236 222.474 87.948 222.198C87.66 221.91 87.312 221.706 86.904 221.586C86.496 221.466 86.04 221.406 85.536 221.406H85.032V228.858ZM95.8458 231.216C95.4378 231.216 95.0658 231.144 94.7298 231C94.4058 230.868 94.1298 230.682 93.9018 230.442C93.6738 230.19 93.4938 229.902 93.3618 229.578C93.2418 229.254 93.1818 228.9 93.1818 228.516C93.1818 227.58 93.5778 226.848 94.3698 226.32C95.1618 225.792 96.4398 225.438 98.2038 225.258C98.1798 224.862 98.0598 224.55 97.8438 224.322C97.6398 224.082 97.2918 223.962 96.7998 223.962C96.4158 223.962 96.0318 224.034 95.6478 224.178C95.2758 224.322 94.8738 224.52 94.4418 224.772L93.4878 223.026C94.0638 222.678 94.6638 222.396 95.2878 222.18C95.9238 221.964 96.5958 221.856 97.3038 221.856C98.4558 221.856 99.3318 222.186 99.9318 222.846C100.544 223.494 100.85 224.508 100.85 225.888V231H98.6898L98.5098 230.082H98.4378C98.0538 230.418 97.6518 230.694 97.2318 230.91C96.8118 231.114 96.3498 231.216 95.8458 231.216ZM96.7458 229.164C97.0458 229.164 97.3038 229.098 97.5198 228.966C97.7358 228.834 97.9638 228.648 98.2038 228.408V226.842C97.2678 226.974 96.6198 227.166 96.2598 227.418C95.8998 227.67 95.7198 227.97 95.7198 228.318C95.7198 228.606 95.8098 228.822 95.9898 228.966C96.1818 229.098 96.4338 229.164 96.7458 229.164ZM103.088 231V222.072H105.734V231H103.088ZM104.402 220.758C103.958 220.758 103.592 220.632 103.304 220.38C103.016 220.116 102.872 219.78 102.872 219.372C102.872 218.964 103.016 218.634 103.304 218.382C103.592 218.13 103.958 218.004 104.402 218.004C104.858 218.004 105.224 218.13 105.5 218.382C105.788 218.634 105.932 218.964 105.932 219.372C105.932 219.78 105.788 220.116 105.5 220.38C105.224 220.632 104.858 220.758 104.402 220.758ZM108.063 231V222.072H110.223L110.403 223.638H110.475C110.799 223.026 111.189 222.576 111.645 222.288C112.101 222 112.557 221.856 113.013 221.856C113.265 221.856 113.469 221.874 113.625 221.91C113.793 221.934 113.943 221.976 114.075 222.036L113.643 224.322C113.475 224.274 113.319 224.238 113.175 224.214C113.031 224.19 112.863 224.178 112.671 224.178C112.335 224.178 111.981 224.298 111.609 224.538C111.249 224.778 110.949 225.204 110.709 225.816V231H108.063ZM116.348 234.492C116.072 234.492 115.838 234.474 115.646 234.438C115.454 234.414 115.268 234.372 115.088 234.312L115.556 232.296C115.64 232.32 115.736 232.344 115.844 232.368C115.952 232.392 116.054 232.404 116.15 232.404C116.594 232.404 116.936 232.296 117.176 232.08C117.416 231.864 117.596 231.582 117.716 231.234L117.842 230.766L114.404 222.072H117.068L118.346 225.906C118.478 226.314 118.598 226.728 118.706 227.148C118.814 227.568 118.928 228 119.048 228.444H119.12C119.216 228.024 119.312 227.604 119.408 227.184C119.516 226.752 119.624 226.326 119.732 225.906L120.812 222.072H123.35L120.254 231.09C120.038 231.654 119.81 232.146 119.57 232.566C119.342 232.998 119.072 233.352 118.76 233.628C118.46 233.916 118.112 234.132 117.716 234.276C117.332 234.42 116.876 234.492 116.348 234.492ZM128.564 231V219.264H135.962V221.496H131.21V224.214H135.278V226.446H131.21V231H128.564ZM137.436 231V222.072H139.596L139.776 223.638H139.848C140.172 223.026 140.562 222.576 141.018 222.288C141.474 222 141.93 221.856 142.386 221.856C142.638 221.856 142.842 221.874 142.998 221.91C143.166 221.934 143.316 221.976 143.448 222.036L143.016 224.322C142.848 224.274 142.692 224.238 142.548 224.214C142.404 224.19 142.236 224.178 142.044 224.178C141.708 224.178 141.354 224.298 140.982 224.538C140.622 224.778 140.322 225.204 140.082 225.816V231H137.436ZM148.428 231.216C147.792 231.216 147.198 231.114 146.646 230.91C146.094 230.694 145.614 230.388 145.206 229.992C144.798 229.584 144.48 229.092 144.252 228.516C144.024 227.94 143.91 227.28 143.91 226.536C143.91 225.816 144.03 225.168 144.27 224.592C144.51 224.004 144.822 223.512 145.206 223.116C145.602 222.708 146.052 222.396 146.556 222.18C147.06 221.964 147.582 221.856 148.122 221.856C148.758 221.856 149.31 221.964 149.778 222.18C150.258 222.396 150.654 222.696 150.966 223.08C151.29 223.464 151.53 223.92 151.686 224.448C151.842 224.964 151.92 225.528 151.92 226.14C151.92 226.38 151.908 226.608 151.884 226.824C151.86 227.04 151.836 227.202 151.812 227.31H146.466C146.586 227.958 146.85 228.438 147.258 228.75C147.678 229.05 148.188 229.2 148.788 229.2C149.424 229.2 150.066 229.002 150.714 228.606L151.596 230.208C151.14 230.52 150.63 230.766 150.066 230.946C149.514 231.126 148.968 231.216 148.428 231.216ZM146.448 225.564H149.67C149.67 225.06 149.556 224.652 149.328 224.34C149.1 224.028 148.716 223.872 148.176 223.872C147.756 223.872 147.384 224.01 147.06 224.286C146.748 224.562 146.544 224.988 146.448 225.564ZM157.744 231.216C157.108 231.216 156.514 231.114 155.962 230.91C155.41 230.694 154.93 230.388 154.522 229.992C154.114 229.584 153.796 229.092 153.568 228.516C153.34 227.94 153.226 227.28 153.226 226.536C153.226 225.816 153.346 225.168 153.586 224.592C153.826 224.004 154.138 223.512 154.522 223.116C154.918 222.708 155.368 222.396 155.872 222.18C156.376 221.964 156.898 221.856 157.438 221.856C158.074 221.856 158.626 221.964 159.094 222.18C159.574 222.396 159.97 222.696 160.282 223.08C160.606 223.464 160.846 223.92 161.002 224.448C161.158 224.964 161.236 225.528 161.236 226.14C161.236 226.38 161.224 226.608 161.2 226.824C161.176 227.04 161.152 227.202 161.128 227.31H155.782C155.902 227.958 156.166 228.438 156.574 228.75C156.994 229.05 157.504 229.2 158.104 229.2C158.74 229.2 159.382 229.002 160.03 228.606L160.912 230.208C160.456 230.52 159.946 230.766 159.382 230.946C158.83 231.126 158.284 231.216 157.744 231.216ZM155.764 225.564H158.986C158.986 225.06 158.872 224.652 158.644 224.34C158.416 224.028 158.032 223.872 157.492 223.872C157.072 223.872 156.7 224.01 156.376 224.286C156.064 224.562 155.86 224.988 155.764 225.564Z" fill="#253F8E"/>
<circle cx="49.5" cy="224.5" r="20.5" fill="#DE343A"/>
<path d="M40.0283 230V217.203H43.4121C44.9062 217.203 46.0957 217.678 46.9805 218.627C47.8711 219.576 48.3252 220.877 48.3428 222.529V224.604C48.3428 226.285 47.8975 227.606 47.0068 228.567C46.1221 229.522 44.9004 230 43.3418 230H40.0283ZM42.6123 219.356V227.855H43.3857C44.2471 227.855 44.8535 227.63 45.2051 227.179C45.5566 226.722 45.7412 225.937 45.7588 224.823V222.6C45.7588 221.404 45.5918 220.572 45.2578 220.104C44.9238 219.629 44.3555 219.38 43.5527 219.356H42.6123ZM56.8066 224.779H52.79V230H50.2061V217.203H57.29V219.356H52.79V222.635H56.8066V224.779Z" fill="#F9F9F9"/>
<path d="M91.42 349L87.874 337.264H90.682L92.086 342.736C92.266 343.384 92.422 344.014 92.554 344.626C92.698 345.226 92.86 345.85 93.04 346.498H93.112C93.28 345.85 93.436 345.226 93.58 344.626C93.724 344.014 93.88 343.384 94.048 342.736L95.434 337.264H98.134L94.606 349H91.42ZM102.834 349.216C102.198 349.216 101.604 349.114 101.052 348.91C100.5 348.694 100.02 348.388 99.612 347.992C99.204 347.584 98.886 347.092 98.658 346.516C98.43 345.94 98.316 345.28 98.316 344.536C98.316 343.816 98.436 343.168 98.676 342.592C98.916 342.004 99.228 341.512 99.612 341.116C100.008 340.708 100.458 340.396 100.962 340.18C101.466 339.964 101.988 339.856 102.528 339.856C103.164 339.856 103.716 339.964 104.184 340.18C104.664 340.396 105.06 340.696 105.372 341.08C105.696 341.464 105.936 341.92 106.092 342.448C106.248 342.964 106.326 343.528 106.326 344.14C106.326 344.38 106.314 344.608 106.29 344.824C106.266 345.04 106.242 345.202 106.218 345.31H100.872C100.992 345.958 101.256 346.438 101.664 346.75C102.084 347.05 102.594 347.2 103.194 347.2C103.83 347.2 104.472 347.002 105.12 346.606L106.002 348.208C105.546 348.52 105.036 348.766 104.472 348.946C103.92 349.126 103.374 349.216 102.834 349.216ZM100.854 343.564H104.076C104.076 343.06 103.962 342.652 103.734 342.34C103.506 342.028 103.122 341.872 102.582 341.872C102.162 341.872 101.79 342.01 101.466 342.286C101.154 342.562 100.95 342.988 100.854 343.564ZM111.165 352.798C110.637 352.798 110.145 352.75 109.689 352.654C109.245 352.57 108.849 352.438 108.501 352.258C108.165 352.078 107.901 351.844 107.709 351.556C107.517 351.268 107.421 350.926 107.421 350.53C107.421 349.81 107.847 349.21 108.699 348.73V348.658C108.459 348.502 108.261 348.304 108.105 348.064C107.949 347.824 107.871 347.518 107.871 347.146C107.871 346.822 107.967 346.516 108.159 346.228C108.351 345.928 108.591 345.676 108.879 345.472V345.4C108.567 345.184 108.285 344.878 108.033 344.482C107.793 344.074 107.673 343.606 107.673 343.078C107.673 342.538 107.775 342.07 107.979 341.674C108.183 341.266 108.453 340.93 108.789 340.666C109.137 340.39 109.533 340.186 109.977 340.054C110.421 339.922 110.883 339.856 111.363 339.856C111.891 339.856 112.353 339.928 112.749 340.072H116.007V341.998H114.585C114.669 342.13 114.735 342.298 114.783 342.502C114.843 342.706 114.873 342.928 114.873 343.168C114.873 343.684 114.783 344.134 114.603 344.518C114.423 344.89 114.171 345.202 113.847 345.454C113.535 345.694 113.163 345.874 112.731 345.994C112.311 346.114 111.855 346.174 111.363 346.174C111.015 346.174 110.655 346.114 110.283 345.994C110.163 346.09 110.079 346.186 110.031 346.282C109.983 346.378 109.959 346.504 109.959 346.66C109.959 346.888 110.055 347.056 110.247 347.164C110.451 347.272 110.805 347.326 111.309 347.326H112.749C113.853 347.326 114.693 347.506 115.269 347.866C115.857 348.214 116.151 348.79 116.151 349.594C116.151 350.062 116.031 350.488 115.791 350.872C115.563 351.268 115.233 351.604 114.801 351.88C114.369 352.168 113.847 352.39 113.235 352.546C112.623 352.714 111.933 352.798 111.165 352.798ZM111.363 344.572C111.711 344.572 111.999 344.452 112.227 344.212C112.467 343.96 112.587 343.582 112.587 343.078C112.587 342.61 112.467 342.256 112.227 342.016C111.999 341.764 111.711 341.638 111.363 341.638C111.015 341.638 110.721 341.758 110.481 341.998C110.253 342.238 110.139 342.598 110.139 343.078C110.139 343.582 110.253 343.96 110.481 344.212C110.721 344.452 111.015 344.572 111.363 344.572ZM111.579 351.142C112.179 351.142 112.671 351.034 113.055 350.818C113.439 350.614 113.631 350.356 113.631 350.044C113.631 349.768 113.511 349.582 113.271 349.486C113.043 349.39 112.707 349.342 112.263 349.342H111.345C111.033 349.342 110.781 349.33 110.589 349.306C110.397 349.294 110.229 349.27 110.085 349.234C109.761 349.522 109.599 349.816 109.599 350.116C109.599 350.452 109.779 350.704 110.139 350.872C110.499 351.052 110.979 351.142 111.579 351.142ZM119.51 349.216C119.102 349.216 118.73 349.144 118.394 349C118.07 348.868 117.794 348.682 117.566 348.442C117.338 348.19 117.158 347.902 117.026 347.578C116.906 347.254 116.846 346.9 116.846 346.516C116.846 345.58 117.242 344.848 118.034 344.32C118.826 343.792 120.104 343.438 121.868 343.258C121.844 342.862 121.724 342.55 121.508 342.322C121.304 342.082 120.956 341.962 120.464 341.962C120.08 341.962 119.696 342.034 119.312 342.178C118.94 342.322 118.538 342.52 118.106 342.772L117.152 341.026C117.728 340.678 118.328 340.396 118.952 340.18C119.588 339.964 120.26 339.856 120.968 339.856C122.12 339.856 122.996 340.186 123.596 340.846C124.208 341.494 124.514 342.508 124.514 343.888V349H122.354L122.174 348.082H122.102C121.718 348.418 121.316 348.694 120.896 348.91C120.476 349.114 120.014 349.216 119.51 349.216ZM120.41 347.164C120.71 347.164 120.968 347.098 121.184 346.966C121.4 346.834 121.628 346.648 121.868 346.408V344.842C120.932 344.974 120.284 345.166 119.924 345.418C119.564 345.67 119.384 345.97 119.384 346.318C119.384 346.606 119.474 346.822 119.654 346.966C119.846 347.098 120.098 347.164 120.41 347.164ZM126.752 349V340.072H128.912L129.092 341.206H129.164C129.548 340.846 129.968 340.534 130.424 340.27C130.88 339.994 131.414 339.856 132.026 339.856C132.998 339.856 133.7 340.174 134.132 340.81C134.576 341.446 134.798 342.328 134.798 343.456V349H132.152V343.798C132.152 343.15 132.062 342.706 131.882 342.466C131.714 342.226 131.438 342.106 131.054 342.106C130.718 342.106 130.43 342.184 130.19 342.34C129.95 342.484 129.686 342.694 129.398 342.97V349H126.752Z" fill="#253F8E"/>
<circle cx="49.5" cy="342.5" r="20.5" fill="#6FB74D"/>
<path d="M50.1943 344.484L52.3477 335.203H55.2305L51.5391 348H48.8496L45.1846 335.203H48.0498L50.1943 344.484Z" fill="#F9F9F9"/>
<path d="M91.42 289L87.874 277.264H90.682L92.086 282.736C92.266 283.384 92.422 284.014 92.554 284.626C92.698 285.226 92.86 285.85 93.04 286.498H93.112C93.28 285.85 93.436 285.226 93.58 284.626C93.724 284.014 93.88 283.384 94.048 282.736L95.434 277.264H98.134L94.606 289H91.42ZM102.834 289.216C102.198 289.216 101.604 289.114 101.052 288.91C100.5 288.694 100.02 288.388 99.612 287.992C99.204 287.584 98.886 287.092 98.658 286.516C98.43 285.94 98.316 285.28 98.316 284.536C98.316 283.816 98.436 283.168 98.676 282.592C98.916 282.004 99.228 281.512 99.612 281.116C100.008 280.708 100.458 280.396 100.962 280.18C101.466 279.964 101.988 279.856 102.528 279.856C103.164 279.856 103.716 279.964 104.184 280.18C104.664 280.396 105.06 280.696 105.372 281.08C105.696 281.464 105.936 281.92 106.092 282.448C106.248 282.964 106.326 283.528 106.326 284.14C106.326 284.38 106.314 284.608 106.29 284.824C106.266 285.04 106.242 285.202 106.218 285.31H100.872C100.992 285.958 101.256 286.438 101.664 286.75C102.084 287.05 102.594 287.2 103.194 287.2C103.83 287.2 104.472 287.002 105.12 286.606L106.002 288.208C105.546 288.52 105.036 288.766 104.472 288.946C103.92 289.126 103.374 289.216 102.834 289.216ZM100.854 283.564H104.076C104.076 283.06 103.962 282.652 103.734 282.34C103.506 282.028 103.122 281.872 102.582 281.872C102.162 281.872 101.79 282.01 101.466 282.286C101.154 282.562 100.95 282.988 100.854 283.564ZM111.165 292.798C110.637 292.798 110.145 292.75 109.689 292.654C109.245 292.57 108.849 292.438 108.501 292.258C108.165 292.078 107.901 291.844 107.709 291.556C107.517 291.268 107.421 290.926 107.421 290.53C107.421 289.81 107.847 289.21 108.699 288.73V288.658C108.459 288.502 108.261 288.304 108.105 288.064C107.949 287.824 107.871 287.518 107.871 287.146C107.871 286.822 107.967 286.516 108.159 286.228C108.351 285.928 108.591 285.676 108.879 285.472V285.4C108.567 285.184 108.285 284.878 108.033 284.482C107.793 284.074 107.673 283.606 107.673 283.078C107.673 282.538 107.775 282.07 107.979 281.674C108.183 281.266 108.453 280.93 108.789 280.666C109.137 280.39 109.533 280.186 109.977 280.054C110.421 279.922 110.883 279.856 111.363 279.856C111.891 279.856 112.353 279.928 112.749 280.072H116.007V281.998H114.585C114.669 282.13 114.735 282.298 114.783 282.502C114.843 282.706 114.873 282.928 114.873 283.168C114.873 283.684 114.783 284.134 114.603 284.518C114.423 284.89 114.171 285.202 113.847 285.454C113.535 285.694 113.163 285.874 112.731 285.994C112.311 286.114 111.855 286.174 111.363 286.174C111.015 286.174 110.655 286.114 110.283 285.994C110.163 286.09 110.079 286.186 110.031 286.282C109.983 286.378 109.959 286.504 109.959 286.66C109.959 286.888 110.055 287.056 110.247 287.164C110.451 287.272 110.805 287.326 111.309 287.326H112.749C113.853 287.326 114.693 287.506 115.269 287.866C115.857 288.214 116.151 288.79 116.151 289.594C116.151 290.062 116.031 290.488 115.791 290.872C115.563 291.268 115.233 291.604 114.801 291.88C114.369 292.168 113.847 292.39 113.235 292.546C112.623 292.714 111.933 292.798 111.165 292.798ZM111.363 284.572C111.711 284.572 111.999 284.452 112.227 284.212C112.467 283.96 112.587 283.582 112.587 283.078C112.587 282.61 112.467 282.256 112.227 282.016C111.999 281.764 111.711 281.638 111.363 281.638C111.015 281.638 110.721 281.758 110.481 281.998C110.253 282.238 110.139 282.598 110.139 283.078C110.139 283.582 110.253 283.96 110.481 284.212C110.721 284.452 111.015 284.572 111.363 284.572ZM111.579 291.142C112.179 291.142 112.671 291.034 113.055 290.818C113.439 290.614 113.631 290.356 113.631 290.044C113.631 289.768 113.511 289.582 113.271 289.486C113.043 289.39 112.707 289.342 112.263 289.342H111.345C111.033 289.342 110.781 289.33 110.589 289.306C110.397 289.294 110.229 289.27 110.085 289.234C109.761 289.522 109.599 289.816 109.599 290.116C109.599 290.452 109.779 290.704 110.139 290.872C110.499 291.052 110.979 291.142 111.579 291.142ZM121.273 289.216C120.637 289.216 120.043 289.114 119.491 288.91C118.939 288.694 118.459 288.388 118.051 287.992C117.643 287.584 117.325 287.092 117.097 286.516C116.869 285.94 116.755 285.28 116.755 284.536C116.755 283.816 116.875 283.168 117.115 282.592C117.355 282.004 117.667 281.512 118.051 281.116C118.447 280.708 118.897 280.396 119.401 280.18C119.905 279.964 120.427 279.856 120.967 279.856C121.603 279.856 122.155 279.964 122.623 280.18C123.103 280.396 123.499 280.696 123.811 281.08C124.135 281.464 124.375 281.92 124.531 282.448C124.687 282.964 124.765 283.528 124.765 284.14C124.765 284.38 124.753 284.608 124.729 284.824C124.705 285.04 124.681 285.202 124.657 285.31H119.311C119.431 285.958 119.695 286.438 120.103 286.75C120.523 287.05 121.033 287.2 121.633 287.2C122.269 287.2 122.911 287.002 123.559 286.606L124.441 288.208C123.985 288.52 123.475 288.766 122.911 288.946C122.359 289.126 121.813 289.216 121.273 289.216ZM119.293 283.564H122.515C122.515 283.06 122.401 282.652 122.173 282.34C121.945 282.028 121.561 281.872 121.021 281.872C120.601 281.872 120.229 282.01 119.905 282.286C119.593 282.562 119.389 282.988 119.293 283.564ZM129.856 289.216C129.304 289.216 128.83 289.132 128.434 288.964C128.05 288.796 127.732 288.562 127.48 288.262C127.24 287.962 127.06 287.602 126.94 287.182C126.832 286.75 126.778 286.276 126.778 285.76V282.142H125.554V280.18L126.922 280.072L127.228 277.696H129.424V280.072H131.566V282.142H129.424V285.724C129.424 286.228 129.526 286.594 129.73 286.822C129.946 287.038 130.228 287.146 130.576 287.146C130.72 287.146 130.864 287.128 131.008 287.092C131.164 287.056 131.302 287.014 131.422 286.966L131.836 288.892C131.596 288.964 131.314 289.036 130.99 289.108C130.666 289.18 130.288 289.216 129.856 289.216ZM135.207 289.216C134.799 289.216 134.427 289.144 134.091 289C133.767 288.868 133.491 288.682 133.263 288.442C133.035 288.19 132.855 287.902 132.723 287.578C132.603 287.254 132.543 286.9 132.543 286.516C132.543 285.58 132.939 284.848 133.731 284.32C134.523 283.792 135.801 283.438 137.565 283.258C137.541 282.862 137.421 282.55 137.205 282.322C137.001 282.082 136.653 281.962 136.161 281.962C135.777 281.962 135.393 282.034 135.009 282.178C134.637 282.322 134.235 282.52 133.803 282.772L132.849 281.026C133.425 280.678 134.025 280.396 134.649 280.18C135.285 279.964 135.957 279.856 136.665 279.856C137.817 279.856 138.693 280.186 139.293 280.846C139.905 281.494 140.211 282.508 140.211 283.888V289H138.051L137.871 288.082H137.799C137.415 288.418 137.013 288.694 136.593 288.91C136.173 289.114 135.711 289.216 135.207 289.216ZM136.107 287.164C136.407 287.164 136.665 287.098 136.881 286.966C137.097 286.834 137.325 286.648 137.565 286.408V284.842C136.629 284.974 135.981 285.166 135.621 285.418C135.261 285.67 135.081 285.97 135.081 286.318C135.081 286.606 135.171 286.822 135.351 286.966C135.543 287.098 135.795 287.164 136.107 287.164ZM142.449 289V280.072H144.609L144.789 281.638H144.861C145.185 281.026 145.575 280.576 146.031 280.288C146.487 280 146.943 279.856 147.399 279.856C147.651 279.856 147.855 279.874 148.011 279.91C148.179 279.934 148.329 279.976 148.461 280.036L148.029 282.322C147.861 282.274 147.705 282.238 147.561 282.214C147.417 282.19 147.249 282.178 147.057 282.178C146.721 282.178 146.367 282.298 145.995 282.538C145.635 282.778 145.335 283.204 145.095 283.816V289H142.449ZM149.621 289V280.072H152.267V289H149.621ZM150.935 278.758C150.491 278.758 150.125 278.632 149.837 278.38C149.549 278.116 149.405 277.78 149.405 277.372C149.405 276.964 149.549 276.634 149.837 276.382C150.125 276.13 150.491 276.004 150.935 276.004C151.391 276.004 151.757 276.13 152.033 276.382C152.321 276.634 152.465 276.964 152.465 277.372C152.465 277.78 152.321 278.116 152.033 278.38C151.757 278.632 151.391 278.758 150.935 278.758ZM156.846 289.216C156.438 289.216 156.066 289.144 155.73 289C155.406 288.868 155.13 288.682 154.902 288.442C154.674 288.19 154.494 287.902 154.362 287.578C154.242 287.254 154.182 286.9 154.182 286.516C154.182 285.58 154.578 284.848 155.37 284.32C156.162 283.792 157.44 283.438 159.204 283.258C159.18 282.862 159.06 282.55 158.844 282.322C158.64 282.082 158.292 281.962 157.8 281.962C157.416 281.962 157.032 282.034 156.648 282.178C156.276 282.322 155.874 282.52 155.442 282.772L154.488 281.026C155.064 280.678 155.664 280.396 156.288 280.18C156.924 279.964 157.596 279.856 158.304 279.856C159.456 279.856 160.332 280.186 160.932 280.846C161.544 281.494 161.85 282.508 161.85 283.888V289H159.69L159.51 288.082H159.438C159.054 288.418 158.652 288.694 158.232 288.91C157.812 289.114 157.35 289.216 156.846 289.216ZM157.746 287.164C158.046 287.164 158.304 287.098 158.52 286.966C158.736 286.834 158.964 286.648 159.204 286.408V284.842C158.268 284.974 157.62 285.166 157.26 285.418C156.9 285.67 156.72 285.97 156.72 286.318C156.72 286.606 156.81 286.822 156.99 286.966C157.182 287.098 157.434 287.164 157.746 287.164ZM164.088 289V280.072H166.248L166.428 281.206H166.5C166.884 280.846 167.304 280.534 167.76 280.27C168.216 279.994 168.75 279.856 169.362 279.856C170.334 279.856 171.036 280.174 171.468 280.81C171.912 281.446 172.134 282.328 172.134 283.456V289H169.488V283.798C169.488 283.15 169.398 282.706 169.218 282.466C169.05 282.226 168.774 282.106 168.39 282.106C168.054 282.106 167.766 282.184 167.526 282.34C167.286 282.484 167.022 282.694 166.734 282.97V289H164.088Z" fill="#253F8E"/>
<circle cx="49.5" cy="283.5" r="20.5" fill="#92CD76"/>
<path d="M44.1943 285.484L46.3477 276.203H49.2305L45.5391 289H42.8496L39.1846 276.203H42.0498L44.1943 285.484ZM59.0127 287.55C58.5146 288.089 57.9023 288.496 57.1758 288.771C56.4551 289.041 55.6641 289.176 54.8027 289.176C53.332 289.176 52.1895 288.722 51.375 287.813C50.5605 286.899 50.1416 285.572 50.1182 283.832V281.529C50.1182 279.766 50.502 278.409 51.2695 277.46C52.043 276.505 53.168 276.027 54.6445 276.027C56.0332 276.027 57.0791 276.37 57.7822 277.056C58.4912 277.741 58.9014 278.816 59.0127 280.281H56.499C56.4287 279.467 56.2588 278.913 55.9893 278.62C55.7197 278.321 55.2979 278.172 54.7236 278.172C54.0264 278.172 53.5195 278.427 53.2031 278.937C52.8867 279.446 52.7227 280.258 52.7109 281.371V283.691C52.7109 284.857 52.8838 285.707 53.2295 286.24C53.5811 286.768 54.1553 287.031 54.9521 287.031C55.4619 287.031 55.875 286.929 56.1914 286.724L56.4199 286.565V284.219H54.6094V282.268H59.0127V287.55Z" fill="#F9F9F9"/>
<path d="M93.156 408.216C92.364 408.216 91.638 408.078 90.978 407.802C90.33 407.514 89.772 407.106 89.304 406.578C88.836 406.05 88.47 405.408 88.206 404.652C87.954 403.896 87.828 403.038 87.828 402.078C87.828 401.118 87.954 400.266 88.206 399.522C88.47 398.766 88.836 398.136 89.304 397.632C89.772 397.116 90.33 396.726 90.978 396.462C91.638 396.186 92.364 396.048 93.156 396.048C93.948 396.048 94.668 396.186 95.316 396.462C95.976 396.726 96.54 397.116 97.008 397.632C97.476 398.148 97.836 398.784 98.088 399.54C98.352 400.284 98.484 401.13 98.484 402.078C98.484 403.038 98.352 403.896 98.088 404.652C97.836 405.408 97.476 406.05 97.008 406.578C96.54 407.106 95.976 407.514 95.316 407.802C94.668 408.078 93.948 408.216 93.156 408.216ZM93.156 405.93C93.96 405.93 94.596 405.588 95.064 404.904C95.532 404.208 95.766 403.266 95.766 402.078C95.766 400.902 95.532 399.984 95.064 399.324C94.596 398.664 93.96 398.334 93.156 398.334C92.352 398.334 91.716 398.664 91.248 399.324C90.78 399.984 90.546 400.902 90.546 402.078C90.546 403.266 90.78 404.208 91.248 404.904C91.716 405.588 92.352 405.93 93.156 405.93ZM100.475 408V399.072H102.635L102.815 400.206H102.887C103.271 399.846 103.691 399.534 104.147 399.27C104.603 398.994 105.137 398.856 105.749 398.856C106.721 398.856 107.423 399.174 107.855 399.81C108.299 400.446 108.521 401.328 108.521 402.456V408H105.875V402.798C105.875 402.15 105.785 401.706 105.605 401.466C105.437 401.226 105.161 401.106 104.777 401.106C104.441 401.106 104.153 401.184 103.913 401.34C103.673 401.484 103.409 401.694 103.121 401.97V408H100.475ZM114.595 408V396.264H118.825C119.449 396.264 120.031 396.324 120.571 396.444C121.123 396.564 121.603 396.768 122.011 397.056C122.419 397.332 122.743 397.704 122.983 398.172C123.223 398.64 123.343 399.222 123.343 399.918C123.343 400.782 123.151 401.496 122.767 402.06C122.395 402.612 121.891 403.026 121.255 403.302L123.919 408H120.949L118.699 403.77H117.241V408H114.595ZM117.241 401.664H118.609C119.305 401.664 119.833 401.52 120.193 401.232C120.565 400.932 120.751 400.494 120.751 399.918C120.751 399.342 120.565 398.94 120.193 398.712C119.833 398.484 119.305 398.37 118.609 398.37H117.241V401.664ZM129.238 408.216C128.602 408.216 128.008 408.114 127.456 407.91C126.904 407.694 126.424 407.388 126.016 406.992C125.608 406.584 125.29 406.092 125.062 405.516C124.834 404.94 124.72 404.28 124.72 403.536C124.72 402.816 124.84 402.168 125.08 401.592C125.32 401.004 125.632 400.512 126.016 400.116C126.412 399.708 126.862 399.396 127.366 399.18C127.87 398.964 128.392 398.856 128.932 398.856C129.568 398.856 130.12 398.964 130.588 399.18C131.068 399.396 131.464 399.696 131.776 400.08C132.1 400.464 132.34 400.92 132.496 401.448C132.652 401.964 132.73 402.528 132.73 403.14C132.73 403.38 132.718 403.608 132.694 403.824C132.67 404.04 132.646 404.202 132.622 404.31H127.276C127.396 404.958 127.66 405.438 128.068 405.75C128.488 406.05 128.998 406.2 129.598 406.2C130.234 406.2 130.876 406.002 131.524 405.606L132.406 407.208C131.95 407.52 131.44 407.766 130.876 407.946C130.324 408.126 129.778 408.216 129.238 408.216ZM127.258 402.564H130.48C130.48 402.06 130.366 401.652 130.138 401.34C129.91 401.028 129.526 400.872 128.986 400.872C128.566 400.872 128.194 401.01 127.87 401.286C127.558 401.562 127.354 401.988 127.258 402.564ZM139.887 411.312V408.594L139.995 407.226C139.695 407.514 139.347 407.754 138.951 407.946C138.555 408.126 138.153 408.216 137.745 408.216C137.193 408.216 136.689 408.108 136.233 407.892C135.789 407.676 135.405 407.37 135.081 406.974C134.769 406.566 134.523 406.074 134.343 405.498C134.175 404.922 134.091 404.268 134.091 403.536C134.091 402.804 134.193 402.15 134.397 401.574C134.613 400.998 134.889 400.512 135.225 400.116C135.573 399.708 135.969 399.396 136.413 399.18C136.869 398.964 137.331 398.856 137.799 398.856C138.291 398.856 138.723 398.946 139.095 399.126C139.467 399.294 139.827 399.57 140.175 399.954H140.247L140.463 399.072H142.533V411.312H139.887ZM138.429 406.056C138.717 406.056 138.975 405.996 139.203 405.876C139.443 405.756 139.671 405.546 139.887 405.246V401.592C139.647 401.376 139.401 401.226 139.149 401.142C138.897 401.058 138.651 401.016 138.411 401.016C137.991 401.016 137.619 401.22 137.295 401.628C136.971 402.024 136.809 402.648 136.809 403.5C136.809 404.388 136.947 405.036 137.223 405.444C137.511 405.852 137.913 406.056 138.429 406.056ZM147.559 408.216C146.587 408.216 145.879 407.898 145.435 407.262C145.003 406.626 144.787 405.744 144.787 404.616V399.072H147.433V404.274C147.433 404.922 147.523 405.366 147.703 405.606C147.883 405.846 148.165 405.966 148.549 405.966C148.885 405.966 149.167 405.888 149.395 405.732C149.623 405.576 149.869 405.324 150.133 404.976V399.072H152.779V408H150.619L150.421 406.758H150.367C149.983 407.214 149.569 407.574 149.125 407.838C148.693 408.09 148.171 408.216 147.559 408.216ZM159.104 408.216C158.468 408.216 157.874 408.114 157.322 407.91C156.77 407.694 156.29 407.388 155.882 406.992C155.474 406.584 155.156 406.092 154.928 405.516C154.7 404.94 154.586 404.28 154.586 403.536C154.586 402.816 154.706 402.168 154.946 401.592C155.186 401.004 155.498 400.512 155.882 400.116C156.278 399.708 156.728 399.396 157.232 399.18C157.736 398.964 158.258 398.856 158.798 398.856C159.434 398.856 159.986 398.964 160.454 399.18C160.934 399.396 161.33 399.696 161.642 400.08C161.966 400.464 162.206 400.92 162.362 401.448C162.518 401.964 162.596 402.528 162.596 403.14C162.596 403.38 162.584 403.608 162.56 403.824C162.536 404.04 162.512 404.202 162.488 404.31H157.142C157.262 404.958 157.526 405.438 157.934 405.75C158.354 406.05 158.864 406.2 159.464 406.2C160.1 406.2 160.742 406.002 161.39 405.606L162.272 407.208C161.816 407.52 161.306 407.766 160.742 407.946C160.19 408.126 159.644 408.216 159.104 408.216ZM157.124 402.564H160.346C160.346 402.06 160.232 401.652 160.004 401.34C159.776 401.028 159.392 400.872 158.852 400.872C158.432 400.872 158.06 401.01 157.736 401.286C157.424 401.562 157.22 401.988 157.124 402.564ZM167.052 408.216C166.464 408.216 165.858 408.102 165.234 407.874C164.622 407.646 164.088 407.346 163.632 406.974L164.82 405.318C165.228 405.63 165.618 405.864 165.99 406.02C166.362 406.176 166.74 406.254 167.124 406.254C167.52 406.254 167.808 406.188 167.988 406.056C168.168 405.924 168.258 405.738 168.258 405.498C168.258 405.354 168.204 405.228 168.096 405.12C168 405 167.862 404.892 167.682 404.796C167.514 404.7 167.322 404.616 167.106 404.544C166.89 404.46 166.668 404.37 166.44 404.274C166.164 404.166 165.888 404.04 165.612 403.896C165.336 403.752 165.084 403.578 164.856 403.374C164.628 403.158 164.442 402.912 164.298 402.636C164.154 402.348 164.082 402.018 164.082 401.646C164.082 401.238 164.16 400.86 164.316 400.512C164.484 400.164 164.718 399.87 165.018 399.63C165.318 399.39 165.678 399.204 166.098 399.072C166.518 398.928 166.986 398.856 167.502 398.856C168.186 398.856 168.786 398.976 169.302 399.216C169.818 399.444 170.268 399.702 170.652 399.99L169.464 401.574C169.14 401.334 168.822 401.148 168.51 401.016C168.198 400.884 167.886 400.818 167.574 400.818C166.902 400.818 166.566 401.052 166.566 401.52C166.566 401.664 166.614 401.79 166.71 401.898C166.806 401.994 166.932 402.084 167.088 402.168C167.256 402.252 167.442 402.336 167.646 402.42C167.862 402.492 168.084 402.57 168.312 402.654C168.6 402.762 168.882 402.888 169.158 403.032C169.446 403.164 169.704 403.332 169.932 403.536C170.172 403.74 170.364 403.992 170.508 404.292C170.652 404.58 170.724 404.928 170.724 405.336C170.724 405.744 170.646 406.122 170.49 406.47C170.334 406.818 170.1 407.124 169.788 407.388C169.476 407.64 169.092 407.844 168.636 408C168.18 408.144 167.652 408.216 167.052 408.216ZM175.491 408.216C174.939 408.216 174.465 408.132 174.069 407.964C173.685 407.796 173.367 407.562 173.115 407.262C172.875 406.962 172.695 406.602 172.575 406.182C172.467 405.75 172.413 405.276 172.413 404.76V401.142H171.189V399.18L172.557 399.072L172.863 396.696H175.059V399.072H177.201V401.142H175.059V404.724C175.059 405.228 175.161 405.594 175.365 405.822C175.581 406.038 175.863 406.146 176.211 406.146C176.355 406.146 176.499 406.128 176.643 406.092C176.799 406.056 176.937 406.014 177.057 405.966L177.471 407.892C177.231 407.964 176.949 408.036 176.625 408.108C176.301 408.18 175.923 408.216 175.491 408.216Z" fill="#253F8E"/>
<circle cx="49.5" cy="401.5" r="20.5" fill="#DA880F"/>
<path d="M48.0078 401.727L44.3164 400.684L45.0195 398.551L48.6523 400.027L48.4297 395.938H50.7266L50.4922 400.109L54.0547 398.668L54.7461 400.812L50.9961 401.867L53.457 404.973L51.582 406.297L49.4492 402.887L47.3281 406.191L45.4648 404.914L48.0078 401.727Z" fill="#F9F9F9"/>
</svg>
