<svg width="31" height="31" viewBox="0 0 31 31" fill="none" xmlns="http://www.w3.org/2000/svg">
<circle cx="15.5" cy="15.5" r="15.5" fill="#DE343A"/>
<path d="M9.078 21V11.872H11.654C12.354 11.872 12.984 11.9607 13.544 12.138C14.104 12.3153 14.5847 12.5907 14.986 12.964C15.3873 13.328 15.6953 13.7947 15.91 14.364C16.1247 14.9333 16.232 15.61 16.232 16.394C16.232 17.178 16.1247 17.8593 15.91 18.438C15.6953 19.0167 15.392 19.4973 15 19.88C14.608 20.2533 14.1367 20.5333 13.586 20.72C13.0447 20.9067 12.438 21 11.766 21H9.078ZM11.136 19.334H11.528C11.92 19.334 12.2747 19.2827 12.592 19.18C12.9093 19.0773 13.18 18.914 13.404 18.69C13.628 18.4567 13.8007 18.1533 13.922 17.78C14.0527 17.4067 14.118 16.9447 14.118 16.394C14.118 15.8527 14.0527 15.4 13.922 15.036C13.8007 14.6627 13.628 14.3687 13.404 14.154C13.18 13.93 12.9093 13.7713 12.592 13.678C12.2747 13.5847 11.92 13.538 11.528 13.538H11.136V19.334ZM17.9647 21V11.872H23.7187V13.608H20.0227V15.722H23.1867V17.458H20.0227V21H17.9647Z" fill="#F9F9F9"/>
</svg>
