<svg width="41" height="41" viewBox="0 0 41 41" fill="none" xmlns="http://www.w3.org/2000/svg">
<circle cx="20.5" cy="20.5" r="20.5" fill="#6E5D9F"/>
<path d="M19.7295 24.5498C19.2314 25.0889 18.6191 25.4961 17.8926 25.7715C17.1719 26.041 16.3809 26.1758 15.5195 26.1758C14.0488 26.1758 12.9062 25.7217 12.0918 24.8135C11.2773 23.8994 10.8584 22.5723 10.835 20.832V18.5293C10.835 16.7656 11.2188 15.4092 11.9863 14.46C12.7598 13.5049 13.8848 13.0273 15.3613 13.0273C16.75 13.0273 17.7959 13.3701 18.499 14.0557C19.208 14.7412 19.6182 15.8164 19.7295 17.2812H17.2158C17.1455 16.4668 16.9756 15.9131 16.7061 15.6201C16.4365 15.3213 16.0146 15.1719 15.4404 15.1719C14.7432 15.1719 14.2363 15.4268 13.9199 15.9365C13.6035 16.4463 13.4395 17.2578 13.4277 18.3711V20.6914C13.4277 21.8574 13.6006 22.707 13.9463 23.2402C14.2979 23.7676 14.8721 24.0312 15.6689 24.0312C16.1787 24.0312 16.5918 23.9287 16.9082 23.7236L17.1367 23.5654V21.2188H15.3262V19.2676H19.7295V24.5498ZM28.1582 20.7793H24.1416V26H21.5576V13.2031H28.6416V15.3564H24.1416V18.6348H28.1582V20.7793Z" fill="#F9F9F9"/>
</svg>
