<svg width="32" height="32" viewBox="0 0 32 32" fill="none" xmlns="http://www.w3.org/2000/svg">
<circle cx="16" cy="16" r="16" fill="#92CD76"/>
<path d="M10.4649 21.0244L7.70693 11.8964H9.89093L10.9829 16.1524C11.1229 16.6564 11.2443 17.1464 11.3469 17.6224C11.4589 18.0891 11.5849 18.5744 11.7249 19.0784H11.7809C11.9116 18.5744 12.0329 18.0891 12.1449 17.6224C12.2569 17.1464 12.3783 16.6564 12.5089 16.1524L13.5869 11.8964H15.6869L12.9429 21.0244H10.4649ZM20.5575 21.1924C19.9322 21.1924 19.3442 21.0944 18.7935 20.8984C18.2522 20.6931 17.7808 20.3944 17.3795 20.0024C16.9782 19.6104 16.6608 19.1251 16.4275 18.5464C16.2035 17.9584 16.0915 17.2817 16.0915 16.5164C16.0915 15.7604 16.2082 15.0884 16.4415 14.5004C16.6748 13.903 16.9922 13.399 17.3935 12.9884C17.8042 12.5777 18.2802 12.265 18.8215 12.0504C19.3628 11.8357 19.9368 11.7284 20.5435 11.7284C21.2062 11.7284 21.7755 11.8497 22.2515 12.0924C22.7275 12.335 23.1148 12.6104 23.4135 12.9184L22.3355 14.2344C22.1022 14.029 21.8548 13.8564 21.5935 13.7164C21.3322 13.5764 21.0055 13.5064 20.6135 13.5064C20.2588 13.5064 19.9322 13.5764 19.6335 13.7164C19.3442 13.847 19.0922 14.0384 18.8775 14.2904C18.6628 14.5424 18.4948 14.8504 18.3735 15.2144C18.2615 15.5784 18.2055 15.989 18.2055 16.4464C18.2055 17.3891 18.4155 18.1217 18.8355 18.6444C19.2648 19.1577 19.9088 19.4144 20.7675 19.4144C20.9542 19.4144 21.1362 19.3911 21.3135 19.3444C21.4908 19.2977 21.6355 19.2277 21.7475 19.1344V17.5664H20.2355V15.8864H23.5675V20.0864C23.2502 20.3944 22.8302 20.6557 22.3075 20.8704C21.7848 21.0851 21.2015 21.1924 20.5575 21.1924Z" fill="#F9F9F9"/>
</svg>
